<?xml version="1.0" encoding="UTF-8"?>
<svg id="a"
    xmlns="http://www.w3.org/2000/svg" viewBox="0 0 84.05 84.05">
    <defs>
        <style>.cls-1{fill:#fff;}.cls-2{fill:#8151fd;}</style>
    </defs>
    <circle class="cls-1" cx="42.03" cy="42.03" r="42.03"/>
    <path class="cls-2" d="M40.15,54.03c-2.24,.61-3.22,1.96-4.68,5.11l-.4,.94c4.21,1.59,8.86,1.64,13.1,.13,4.17-1.38,7.61-4.37,9.56-8.3,1.83-3.74,2.4-8.48,1.66-13.71-1.39-9.79-1.39-10.57-1.37-13.4v-1.38c.15-2.86,.67-5.69,1.53-8.42,.14-.48,.27-.94,.39-1.37-1.87,.54-4.37,1.31-7.21,2.34-7.32,2.57-14.24,6.15-20.57,10.64-4.41,3.46-7.36,7.15-8.78,10.96-.71,1.9-1.03,3.93-.94,5.96,.15,2.25,.72,4.45,1.68,6.49,1.64,3.57,4.35,6.54,7.75,8.5,.68-1.42,1.35-2.87,1.81-3.93,.92-2.17,2.88-5.92,2.36-7.65-.49-1.2-1.27-2.25-2.27-3.06-1.82,1.39-4.37,1.26-6.05-.3-1.68-1.56-1.99-4.09-.75-6.01,1.25-1.92,3.69-2.67,5.8-1.77,2.1,.9,3.26,3.18,2.74,5.41,.54,.41,1.04,.87,1.51,1.35,.54,.45,.99,1.02,1.29,1.66,.54-1.14,4.55-10.71,6.1-14.37-1.67-1.56-1.98-4.09-.73-6.01,1.24-1.91,3.68-2.66,5.79-1.77,2.1,.89,3.26,3.16,2.75,5.39s-2.55,3.76-4.83,3.64l-3.6,8.07c.87-.34,1.78-.55,2.71-.63,.67-.05,1.34-.05,2,0,1.1-1.89,3.36-2.77,5.45-2.12s3.46,2.65,3.3,4.82c-.16,2.18-1.8,3.96-3.96,4.3s-4.27-.86-5.08-2.88c-.1-.26-.19-.52-.24-.79-1.15-.18-2.34-.09-3.45,.28-2.1,.8-2.39,2.23-3.31,4.14-.92,1.92-2.34,5-2.34,5,.9-.37,1.84-.64,2.8-.81,.47-.05,.93-.07,1.4-.06,1.08-1.89,3.33-2.79,5.42-2.17,2.09,.62,3.48,2.61,3.34,4.79s-1.75,3.98-3.9,4.34c-2.15,.37-4.27-.8-5.12-2.81-.1-.25-.18-.5-.24-.77-.82-.05-1.63,.03-2.42,.25h0v-.02Zm-24.85,15.68c-.94-2.4,.23-5.1,2.62-6.07,2.39-.96,5.1,.18,6.09,2.55,.2,.48,.31,1,.33,1.52,.24,0,.49-.05,.72-.11,2.66-.59,3.88-3.39,4.89-5.25l.06-.15c-1.65-.95-3.17-2.09-4.54-3.4-2.13-2.01-3.85-4.43-5.05-7.1-2.38-4.85-2.69-10.46-.87-15.54,1.67-4.55,5.06-8.86,10.09-12.8,3.49-2.56,7.2-4.81,11.08-6.72,3.46-1.71,7.01-3.22,10.64-4.53,3.65-1.35,7.37-2.49,11.16-3.39,1.09-.23,2.16,.46,2.41,1.54,.08,.36,.06,.74-.05,1.09-.81,2.32-2.87,9-2.88,12l.08,1.46c.02,2.57,0,3.33,1.33,12.82,.42,2.81,.46,5.67,.14,8.49-.3,2.63-1.04,5.2-2.19,7.59-1.14,2.35-2.73,4.45-4.68,6.18-2.1,1.83-4.52,3.25-7.15,4.17-2.76,1-5.7,1.44-8.63,1.31-2.62-.11-5.2-.65-7.64-1.6-.44,.85-.9,1.7-1.49,2.7-1.41,2.59-3.69,4.61-6.43,5.7-3.05,1.27-4.84,1.18-6.97,.37l-.62-.26c-1.13-.49-2.01-1.41-2.47-2.55,0,0,.02-.02,.02-.02Z"/>
</svg>