<svg height="100%" width="100%" id="bg-svg" viewBox="0 0 1440 400" xmlns="http://www.w3.org/2000/svg">
	<path d="M 0,400 C 0,400 0,100 0,100 C 196.40000000000003,98.80000000000001 392.80000000000007,97.60000000000001 564,107 C 735.1999999999999,116.39999999999999 881.2,136.39999999999998 1023,137 C 1164.8,137.60000000000002 1302.4,118.80000000000001 1440,100 C 1440,100 1440,400 1440,400 Z" stroke="none" stroke-width="0" fill="#7bdcb566" class="transition-all duration-300 ease-in-out delay-150">
	</path>
	<path d="M 0,400 C 0,400 0,200 0,200 C 170,208.53333333333333 340,217.06666666666666 480,213 C 620,208.93333333333334 730,192.26666666666665 885,188 C 1040,183.73333333333335 1240,191.86666666666667 1440,200 C 1440,200 1440,400 1440,400 Z" stroke="none" stroke-width="0" fill="#7bdcb588" class="transition-all duration-300 ease-in-out delay-150">
	</path>
	<path d="M 0,400 C 0,400 0,300 0,300 C 214.40000000000003,311.33333333333337 428.80000000000007,322.6666666666667 567,316 C 705.1999999999999,309.3333333333333 767.2,284.66666666666663 900,279 C 1032.8,273.33333333333337 1236.4,286.6666666666667 1440,300 C 1440,300 1440,400 1440,400 Z" stroke="none" stroke-width="0" fill="#7bdcb5ff" class="transition-all duration-300 ease-in-out delay-150">
	</path>
</svg>
