<!--
Copyright LEAV Solutions 2017
This file is released under LGPL V3
License text available at https://www.gnu.org/licenses/lgpl-3.0.txt
-->
<svg xmlns="http://www.w3.org/2000/svg" width="16" height="16" viewBox="0 0 16 16">
  <g id="Groupe_6729" data-name="Groupe 6729" transform="translate(40.322 176.322) rotate(180)">
    <g id="Groupe_6730" data-name="Groupe 6730" transform="translate(24 160)">
      <g id="Groupe_6728" data-name="Groupe 6728">
        <g id="Rectangle_2972" data-name="Rectangle 2972" transform="translate(0.322 0.322)" fill="#fff" stroke="#181a33" stroke-width="1">
          <rect width="16" height="16" rx="2" stroke="none"/>
          <rect x="0.5" y="0.5" width="15" height="15" rx="1.5" fill="none"/>
        </g>
        <path id="Tracé_6332" data-name="Tracé 6332" d="M10201.054,2850.63v15.429" transform="translate(-10191.494 -2850.106)" fill="none" stroke="#181a33" stroke-width="1"/>
      </g>
      <path id="Tracé_6338" data-name="Tracé 6338" d="M2.435,2.265,4.276.119a.313.313,0,0,1,.491,0,.458.458,0,0,1,0,.574L2.681,3.123a.31.31,0,0,1-.478.012L.1.694A.433.433,0,0,1,0,.408.435.435,0,0,1,.1.121a.313.313,0,0,1,.492,0Z" transform="translate(3.597 10.951) rotate(-90)" fill="#181a33"/>
    </g>
  </g>
</svg>
