<?xml version="1.0" encoding="UTF-8" standalone="no"?>
<svg viewBox="0 0 163.3 64.46" version="1.1" id="svg101" sodipodi:docname="logo-leavengine.svg" inkscape:version="1.1.2 (0a00cf5339, 2022-02-04)"
   xmlns:inkscape="http://www.inkscape.org/namespaces/inkscape"
   xmlns:sodipodi="http://sodipodi.sourceforge.net/DTD/sodipodi-0.dtd"
   xmlns="http://www.w3.org/2000/svg"
   xmlns:svg="http://www.w3.org/2000/svg">
   <sodipodi:namedview id="namedview103" pagecolor="#505050" bordercolor="#eeeeee" borderopacity="1" inkscape:pageshadow="0" inkscape:pageopacity="0" inkscape:pagecheckerboard="0" showgrid="false" inkscape:zoom="6.9840784" inkscape:cx="65.577729" inkscape:cy="39.446865" inkscape:window-width="2494" inkscape:window-height="1376" inkscape:window-x="1986" inkscape:window-y="27" inkscape:window-maximized="1" inkscape:current-layer="Calque_1-2" />
   <defs id="defs75">
      <style id="style73">.cls-1{fill:#fff;}</style>
   </defs>
   <g id="Calque_2" data-name="Calque 2">
      <g id="Calque_1-2" data-name="Calque 1">
         <path class="cls-1" d="M25.17,45.37c-2.25.61-3.22,2-4.68,5.11l-.4.94a19,19,0,0,0,13.1.13,16.41,16.41,0,0,0,9.56-8.3c1.83-3.74,2.4-8.48,1.66-13.72C43,19.75,43,19,43.05,16.13c0-.4,0-.85,0-1.38a34,34,0,0,1,1.54-8.42c.13-.47.27-.94.39-1.37-1.87.54-4.37,1.3-7.2,2.34A83.5,83.5,0,0,0,17.2,17.94c-4.41,3.46-7.36,7.15-8.78,11a15.47,15.47,0,0,0-.94,6,18.06,18.06,0,0,0,1.68,6.5,18.94,18.94,0,0,0,7.75,8.5c.68-1.42,1.35-2.87,1.81-3.93.93-2.17,2.88-5.92,2.36-7.65a7.48,7.48,0,0,0-2.27-3.06,4.71,4.71,0,1,1,1.73-2.67,13,13,0,0,1,1.52,1.35,5,5,0,0,1,1.29,1.66c.54-1.14,4.55-10.72,6.1-14.38a4.7,4.7,0,1,1,3,1.27l-3.6,8.06a9.3,9.3,0,0,1,2.7-.62,15,15,0,0,1,2,0,4.69,4.69,0,1,1-.3,4.12,4.25,4.25,0,0,1-.24-.79,7.34,7.34,0,0,0-3.45.28c-2.1.8-2.38,2.23-3.31,4.14s-2.34,5-2.34,5a13.7,13.7,0,0,1,2.79-.81,11.09,11.09,0,0,1,1.41-.06,4.69,4.69,0,1,1-.26,4.15,4.92,4.92,0,0,1-.24-.77A7.34,7.34,0,0,0,25.17,45.37ZM.32,61.05A4.7,4.7,0,0,1,9,57.53a5,5,0,0,1,.33,1.52,3.48,3.48,0,0,0,.72-.11c2.66-.59,3.88-3.39,4.89-5.25l.07-.15a23.67,23.67,0,0,1-4.55-3.4,22.44,22.44,0,0,1-5-7.11,20,20,0,0,1-.87-15.54c1.67-4.55,5.06-8.86,10.09-12.8A73.58,73.58,0,0,1,25.76,8,102.65,102.65,0,0,1,36.4,3.44,99,99,0,0,1,47.56,0,2.05,2.05,0,0,1,50,1.59a2.09,2.09,0,0,1-.06,1.08c-.8,2.32-2.86,9-2.87,12l.08,1.46c0,2.57,0,3.33,1.33,12.82a32.61,32.61,0,0,1,.14,8.49A23.88,23.88,0,0,1,46.41,45a19.86,19.86,0,0,1-4.69,6.18,21.88,21.88,0,0,1-7.15,4.17,22.25,22.25,0,0,1-8.63,1.31,23.8,23.8,0,0,1-7.64-1.6c-.44.84-.9,1.7-1.49,2.69a12.61,12.61,0,0,1-6.43,5.7c-3.05,1.27-4.84,1.19-7,.37l-.62-.26A4.68,4.68,0,0,1,.32,61.05Z" id="path77" style="fill:#9437ff;fill-opacity:1" />
         <path class="cls-1" d="M62.93,33.17V2.91H67.7V32.37a4.59,4.59,0,0,0,1.24,3.4A4.4,4.4,0,0,0,72.18,37v4.26Q62.94,41.27,62.93,33.17Z" id="path79" style="fill:#9437ff;fill-opacity:1" />
         <path class="cls-1" d="M88.75,17.43a7.51,7.51,0,0,0-7.67,6.92H96a6.78,6.78,0,0,0-1.81-4.82A7,7,0,0,0,88.75,17.43Zm11.56,10.38H81q0,4.71,2.58,7.24a8.1,8.1,0,0,0,5.87,2.21,10,10,0,0,0,6.81-2.38l2,3.43a9,9,0,0,1-3.38,1.91,18.38,18.38,0,0,1-6.37,1.05,11.92,11.92,0,0,1-8.6-3.43,13.5,13.5,0,0,1-3.94-10.18Q75.94,21,80,17a11.73,11.73,0,0,1,8.55-3.58q5.75,0,9,3.23a11.07,11.07,0,0,1,3.16,8.25A10.73,10.73,0,0,1,100.31,27.81Z" id="path81" style="fill:#9437ff;fill-opacity:1" />
         <path class="cls-1" d="M120.42,27.58a17.69,17.69,0,0,0-3.16-.5,9,9,0,0,0-5.89,1.86,5.49,5.49,0,0,0-2.28,4.38q0,4.18,4.93,4.19,3.62,0,6.4-3.44Zm.45,10.1q-2.87,3.59-8.75,3.59A7.53,7.53,0,0,1,106.64,39a7.69,7.69,0,0,1-2.32-5.71,8.51,8.51,0,0,1,3.57-6.9A14.28,14.28,0,0,1,117,23.55a10.54,10.54,0,0,1,3.41.65q0-6.52-5.82-6.52-4.45,0-6.87,2.41l-2-4a11.73,11.73,0,0,1,3.74-1.89,14.52,14.52,0,0,1,4.58-.79c3.89,0,6.72.88,8.48,2.66s2.65,4.58,2.65,8.44v9.63q0,3.54,2.11,4.71v2.38a9,9,0,0,1-4.35-.82A4.62,4.62,0,0,1,120.87,37.68Z" id="path83" style="fill:#9437ff;fill-opacity:1" />
         <polygon class="cls-1" points="140.66 41.27 139.4 41.27 127.9 13.84 133.11 13.84 140.21 32.65 147.45 13.84 152.44 13.84 140.66 41.27" id="polygon85" style="fill:#9437ff;fill-opacity:1" />
         <path class="cls-1" d="M93.46,45.84a3.79,3.79,0,0,0-2.73,1,3.83,3.83,0,0,0-1.2,2.49h7.61a3.49,3.49,0,0,0-.92-2.46A3.62,3.62,0,0,0,93.46,45.84Zm5.91,5.31h-9.9a5,5,0,0,0,1.32,3.71,4.15,4.15,0,0,0,3,1.13,5.12,5.12,0,0,0,3.49-1.22l1,1.76a4.5,4.5,0,0,1-1.73,1,9.37,9.37,0,0,1-3.26.54,6.07,6.07,0,0,1-4.4-1.75,6.88,6.88,0,0,1-2-5.21A7.35,7.35,0,0,1,89,45.62a6,6,0,0,1,4.37-1.83A6.27,6.27,0,0,1,98,45.44a5.65,5.65,0,0,1,1.62,4.22A5.37,5.37,0,0,1,99.37,51.15Z" id="path87" style="fill:#9437ff;fill-opacity:1" />
         <path class="cls-1" d="M110.59,57.79v-8a5.31,5.31,0,0,0-.66-3.07,2.59,2.59,0,0,0-2.22-.88,3.68,3.68,0,0,0-1.74.5,3.94,3.94,0,0,0-1.4,1.23V57.79h-2.44V44h1.67l.77,1.78a4.21,4.21,0,0,1,3.94-2q4.51,0,4.52,5.49v8.51Z" id="path89" style="fill:#9437ff;fill-opacity:1" />
         <path class="cls-1" d="M121.16,45.75a2.63,2.63,0,0,0-2.07.9,3.14,3.14,0,0,0-.8,2.18,3.66,3.66,0,0,0,.77,2.38,2.58,2.58,0,0,0,2.1.94,2.45,2.45,0,0,0,2-.91,3.76,3.76,0,0,0,.73-2.41,3.18,3.18,0,0,0-.79-2.18A2.5,2.5,0,0,0,121.16,45.75ZM116,61.55l1.32-1.95A7.2,7.2,0,0,0,121.24,61a5.1,5.1,0,0,0,2.61-.57,1.65,1.65,0,0,0,1-1.42c0-1.11-.81-1.67-2.42-1.67a9.21,9.21,0,0,0-1.48.21,9.24,9.24,0,0,1-1.69.2c-2,0-2.92-.73-2.92-2.2a1.55,1.55,0,0,1,.69-1.23,4.13,4.13,0,0,1,1.7-.8,5.2,5.2,0,0,1-1.4-8.32,5.17,5.17,0,0,1,3.7-1.43,5.31,5.31,0,0,1,3.17.83l1.22-1.46,1.59,1.5-1.46,1.1a5.08,5.08,0,0,1,.94,3.19,5,5,0,0,1-1.3,3.49,5.07,5.07,0,0,1-3.4,1.61l-2,.21a4,4,0,0,0-1,.27c-.41.16-.61.37-.61.63s.42.52,1.26.52a10.55,10.55,0,0,0,1.72-.2,11.78,11.78,0,0,1,1.73-.2,4.74,4.74,0,0,1,3.16,1,3.36,3.36,0,0,1,1.14,2.69,3.58,3.58,0,0,1-1.7,3.07,7.43,7.43,0,0,1-4.31,1.17,9.11,9.11,0,0,1-2.81-.48A8.18,8.18,0,0,1,116,61.55Z" id="path91" style="fill:#9437ff;fill-opacity:1" />
         <path class="cls-1" d="M130.86,57.79V46.1H129V44h4.32V57.79Zm1.34-18.94a1.5,1.5,0,0,1,1.51,1.5,1.46,1.46,0,0,1-.44,1.07,1.44,1.44,0,0,1-1.07.44,1.5,1.5,0,0,1-1.5-1.51,1.47,1.47,0,0,1,1.5-1.5Z" id="path93" style="fill:#9437ff;fill-opacity:1" />
         <path class="cls-1" d="M145.63,57.79v-8a5.31,5.31,0,0,0-.66-3.07,2.58,2.58,0,0,0-2.21-.88,3.68,3.68,0,0,0-1.75.5,3.94,3.94,0,0,0-1.4,1.23V57.79h-2.43V44h1.66l.77,1.78a4.22,4.22,0,0,1,3.94-2q4.51,0,4.52,5.49v8.51Z" id="path95" style="fill:#9437ff;fill-opacity:1" />
         <path class="cls-1" d="M157.19,45.84a3.84,3.84,0,0,0-3.92,3.54h7.6a3.45,3.45,0,0,0-.92-2.46A3.6,3.6,0,0,0,157.19,45.84Zm5.92,5.31H153.2a5,5,0,0,0,1.32,3.71,4.16,4.16,0,0,0,3,1.13A5.16,5.16,0,0,0,161,54.77l1,1.76a4.42,4.42,0,0,1-1.73,1,9.37,9.37,0,0,1-3.26.54,6.08,6.08,0,0,1-4.4-1.75,6.92,6.92,0,0,1-2-5.21,7.35,7.35,0,0,1,2.07-5.46,6,6,0,0,1,4.38-1.83,6.24,6.24,0,0,1,4.6,1.65,5.65,5.65,0,0,1,1.62,4.22A5.38,5.38,0,0,1,163.11,51.15Z" id="path97" style="fill:#9437ff;fill-opacity:1" />
      </g>
   </g>
</svg>
