<!--
Copyright LEAV Solutions 2017
This file is released under LGPL V3
License text available at https://www.gnu.org/licenses/lgpl-3.0.txt
-->
<svg id="Calque_1" data-name="Calque 1" xmlns="http://www.w3.org/2000/svg" viewBox="0 0 36.96 36.96"><defs><style>.cls-1{fill:#3aaa35;}</style></defs><path d="M21.24,2.59a18.48,18.48,0,1,0,18.5,18.48A18.48,18.48,0,0,0,21.24,2.59Z" transform="translate(-2.78 -2.59)"/><path class="cls-1" d="M21.26,35.86A14.79,14.79,0,1,1,36,21.07h0A14.78,14.78,0,0,1,21.27,35.86Z" transform="translate(-2.78 -2.59)"/><path d="M21.24,31.58a10.15,10.15,0,0,0,9.47-6.46H27.62a7.36,7.36,0,0,1-12.75,0H11.79a10.14,10.14,0,0,0,9.46,6.46Z" transform="translate(-2.78 -2.59)"/><circle id="Ellipse_31" data-name="Ellipse 31" cx="24.88" cy="13.87" r="3"/><circle id="Ellipse_32" data-name="Ellipse 32" cx="11.88" cy="13.87" r="3"/></svg>