<svg xmlns="http://www.w3.org/2000/svg" xmlns:xlink="http://www.w3.org/1999/xlink" xmlns:lucid="lucid" width="1762" height="1428"><g transform="translate(841 -440)" lucid:page-tab-id="0_0"><path d="M-1000 500h2000v5000h-2000z" fill="#fff"/><path d="M-780 766a6 6 0 0 1 6-6h198a6 6 0 0 1 6 6v8a14.48 14.48 0 0 1-4.24 10.24l-1.52 1.52A14.48 14.48 0 0 1-586 790h-188a6 6 0 0 1-6-6z" fill="#fff"/><path d="M-570 760v20l-10 10h-200" stroke="#282c33" stroke-width="2" fill="none"/><path d="M-780 766a6 6 0 0 1 6-6H854a6 6 0 0 1 6 6v508a6 6 0 0 1-6 6H-774a6 6 0 0 1-6-6z" stroke="#282c33" stroke-width="2" fill="none"/><use xlink:href="#a" transform="matrix(1,0,0,1,-772,760) translate(0 19.444444444444443)"/><use xlink:href="#b" transform="matrix(1,0,0,1,-772,760) translate(75.18518518518518 19.444444444444443)"/><use xlink:href="#c" transform="matrix(1,0,0,1,-772,760) translate(120.74074074074073 19.444444444444443)"/><path d="M-780 1406a6 6 0 0 1 6-6h103a6 6 0 0 1 6 6v8a14.48 14.48 0 0 1-4.24 10.24l-1.52 1.52A14.48 14.48 0 0 1-681 1430h-93a6 6 0 0 1-6-6z" fill="#fff"/><path d="M-665 1400v20l-10 10h-105" stroke="#282c33" stroke-width="2" fill="none"/><path d="M-780 1406a6 6 0 0 1 6-6H854a6 6 0 0 1 6 6v388a6 6 0 0 1-6 6H-774a6 6 0 0 1-6-6z" stroke="#282c33" stroke-width="2" fill="none"/><use xlink:href="#d" transform="matrix(1,0,0,1,-772,1400) translate(0 19.444444444444443)"/><path d="M-629.62 680.5v10m0 10v19.97m0 10v19.98m0 10v19.98m0 10v19.98m0 10v20m0 9.98v19.98m0 10v19.98m0 10v19.98m0 10v19.98m0 10v19.98m0 10v19.98m0 10v19.97m0 10v19.98m0 10v20m0 9.98v20m0 9.98v20m0 9.98v20m0 9.98v20m0 9.98v19.98m0 10v19.98m0 10v19.98m0 10V1350m0 10V1380m0 10v19.98m0 10v19.97m0 10v19.98m0 10v19.98m0 10v20m0 9.98v20m0 9.98v20m0 9.98v20m0 9.98v20m0 9.98v19.98m0 10v19.98m0 10v19.98m0 10v19.98m0 10v19.98m0 10v19.98m0 10v19.97m0 10v19.98m0 10v19.98m0 10v20m0 9.98v20m0 9.98v20m0 9.98v20m0 9.98v19.98m0 10v19.98m0 10v19.98m0 10v19.98m0 10v19.98m0 10v19.98m0 10v19.97m0 10v19.98m0 10v19.98m0 10v19.98m0 10v20m0 9.98v20m0 9.98v19.98m0 10v19.98m0 10v19.98m0 10v19.98m0 10v19.98m0 10v10l-.06.77-.2.76-.3.72-.4.66-.5.6-.6.5-.67.42-.73.3-.76.18-.78.07h-6.8m-6.8 0H-655l-.78.06-.76.2-.73.3-.67.4-.6.5-.5.6-.42.68-.3.72-.18.76-.06.78v10.04m0 10.04v20.07m0 10.02v20.07m0 10.03v20.07m0 10.04v20.07m0 10.04v20.07m0 10.05v20.07m0 10.04v20.07m0 10.03v20.07m0 10.04v20.07m0 10.04v20.07m0 10.03v20.07m0 10.04v20.06m0 10.04v20.07m0 10.03v20.08m0 10.03v20.08m0 10.04v20.07m0 10.02V3101m0 10.03v20.07m0 10.04v20.07m0 10.04v20.08m0 10.03v20.07m0 10.04v20.07m0 10.03v20.08m0 10.03v20.07m0 10.04v20.07m0 10.04v20.06m0 10.03v20.06m0 10.04v20.07m0 10.03v20.08m0 10.03v20.08m0 10.04v20.07m0 10.03v20.07m0 10.03v20.07m0 10.04v20.07m0 10.05v20.07m0 10.03v20.07m0 10.04v20.07m0 10.04v20.07m0 10.03v20.07m0 10.04v20.07m0 10.04v20.06m0 10.03v20.06m0 10.04v20.07m0 10.04v20.08m0 10.03V3944m0 10.04v20.07m0 10.03v20.07m0 10.03v20.07m0 10.04v20.07m0 10.05v20.07m0 10.03v20.07m0 10.04v20.07m0 10.04v20.07m0 10.03v20.07m0 10.04v20.07m0 10.04v20.06m0 10.03v20.07m0 10.03v20.07m0 10.04v20.08m0 10.04v20.07m0 10.02v20.07m0 10.03v20.07m0 10.03v20.08m0 10.04V4516m0 10.05v20.07m0 10.03v20.08m0 10.03v20.07m0 10.04v20.07m0 10.04v20.07m0 10.03v20.07m0 10.04v20.06m0 10.04v20.07m0 10.03v20.07m0 10.04v20.08m0 10.04v20.07m0 10.02v20.07m0 10.03v20.07m0 10.04v20.07m0 10.04v20.07m0 10.05v20.07m0 10.04v20.07m0 10.03v20.07m0 10.04v20.07m0 10.04v20.07m0 10.03v20.07m0 10.04v20.06m0 10.04v20.07m0 10.03v20.07m0 10.04v20.08m0 10.04v20.07m0 10.02v20.08m0 10.03V5359m0 10.04v20.07m0 10.04v20.07m0 10.05v20.07m0 10.04v20.07m0 10.03v10.04M-629.62 680.5v-.5M-660 5499.5v.5M-320 622.5v9.95m0 9.95v19.9m0 9.96v19.9m0 9.95V722m0 9.96v19.9m0 9.96v19.9m0 9.95v19.9m0 9.96v19.9m0 9.95v19.9m0 9.95v19.9m0 9.96V931m0 9.94v19.9m0 9.96v19.9m0 9.95v19.9m0 9.95v19.9m0 9.96v19.9m0 9.95v19.9m0 9.97v19.9m0 9.95v19.9m0 9.95v19.9m0 9.96v19.9m0 9.95v19.9m0 9.95v19.9m0 9.96v19.9m0 9.94v19.9m0 9.96v19.9m0 9.95v19.9m0 9.95v19.9m0 9.96v19.9m0 9.95v19.9m0 9.97v19.9m0 9.95v19.9m0 9.95v19.9m0 9.96v19.9m0 9.95v19.9m0 9.96v19.9m0 9.95v19.9m0 9.94v19.9m0 9.96v19.9m0 9.95v19.9m0 9.96v19.9m0 9.96v19.9m0 9.95v19.92m0 9.95v19.9m0 9.95v19.9m0 9.96v19.9m0 9.95v19.9m0 9.95v19.9m0 9.96v19.9m0 9.95v19.9m0 9.94v19.9m0 9.96v19.9m0 9.95v19.9m0 9.96v19.9m0 9.96v19.9m0 9.95v19.92m0 9.95v19.9m0 9.95v19.9m0 9.96v19.9m0 9.95v19.9m0 9.95v19.9m0 9.96v19.9m0 9.95v19.9m0 9.95v19.9m0 9.95v19.9m0 9.95v19.9m0 9.96v19.9m0 9.96v19.9m0 9.96v19.9m0 9.95v19.9m0 9.95v19.9m0 9.96v19.9m0 9.95v19.9m0 9.96v19.9m0 9.94v19.9m0 9.95v19.9m0 9.95v19.9m0 9.95v19.9m0 9.96v19.9m0 9.95v19.9m0 9.96v19.9m0 9.96v19.9m0 9.95v19.9m0 9.96v19.9m0 9.95v19.9m0 9.95v19.9m0 9.96v19.9m0 9.94v19.9m0 9.96v19.9m0 9.95v9.95" stroke="#333" fill="none"/><path d="M-319.52 622.5h-.96v-.5h.96z" stroke="#333" stroke-width=".05" fill="#333"/><path d="M-320 3279.5v.5M42.84 622.5v10.05m0 10.05v20.1m0 10.06v20.1m0 10.05V723m0 10.06v20.1m0 10.06v20.1m0 10.05v20.1m0 10.06v20.1m0 10.05v20.1m0 10.05v20.1m0 10.06v20.1m0 10.04v20.1m0 10.05v20.1m0 10.05v20.1m0 10.05v20.1m0 10.06v20.1m0 10.05v20.1m0 10.07v20.1m0 10.05v20.1m0 10.05v20.1m0 10.06v20.1m0 10.05v20.1m0 10.05v20.1m0 10.06v20.1m0 10.04v20.1m0 10.06v20.1m0 10.05v20.1m0 10.05v20.1m0 10.06v20.1m0 10.05v20.1m0 10.07v20.1m0 10.05v20.1m0 10.05v20.1m0 10.06v20.1m0 10.05v20.1m0 10.06v20.1m0 10.05v20.1m0 10.04v20.1m0 10.06v20.1m0 10.05v20.1m0 10.06v20.1m0 10.06v20.1m0 10.05v20.12m0 10.05v20.1m0 10.05v20.1m0 10.05v20.1m0 10.06v10.05l-.02.22-.05.22-.08.2-.13.2-.15.16-.16.15-.2.12-.2.08-.22.05-.22.02-.22.02-.22.05-.2.1-.2.1-.16.15-.15.17-.12.18-.08.2-.05.22-.02.22v10.05m0 10.05v20.1m0 10.06v20.1m0 10.05v20.1m0 10.06v20.1m0 10.04v20.1m0 10.05v20.1m0 10.05v20.1m0 10.05v20.1m0 10.06v20.1m0 10.05v20.1m0 10.06v20.1m0 10.06v20.1m0 10.05v20.1m0 10.05v20.1m0 10.06v20.1m0 10.05v20.1m0 10.06v20.1m0 10.04v20.1m0 10.05v20.1m0 10.05v20.1m0 10.05v20.1m0 10.06v20.1m0 10.05v20.1m0 10.06v20.1m0 10.06v20.1m0 10.05v20.1m0 10.06v20.1m0 10.05v20.1m0 10.05v20.1m0 10.06v20.1m0 10.04v20.1m0 10.05v20.1m0 10.05v20.1m0 10.05v20.1m0 10.06v20.1m0 10.05v20.1m0 10.06v20.1m0 10.06v20.1m0 10.05v20.1m0 10.06v20.1m0 10.05v20.1m0 10.05v20.1m0 10.06v20.1m0 10.04v20.1m0 10.06v20.1m0 10.05v10.05" stroke="#333" fill="none"/><path d="M43.32 622.5h-.95v-.5h.95z" stroke="#333" stroke-width=".05" fill="#333"/><path d="M40 3399.5v.5M575.04 622.5v10.05m0 10.06v20.1m0 10.06v20.1m0 10.06v20.1m0 10.06v20.1m0 10.06v20.1m0 10.06v20.1m0 10.06v20.1m0 10.06v20.1m0 10.05v20.1m0 10.06v20.1m0 10.06v20.1m0 10.05v20.1m0 10.06v20.1m0 10.07v20.1m0 10.05v20.1m0 10.06v20.1m0 10.06v20.1m0 10.06v20.1m0 10.06v20.1m0 10.06v20.1m0 10.05v20.1m0 10.06v20.1m0 10.06v20.1m0 10.05v20.1m0 10.06v20.1m0 10.07v20.1m0 10.05v20.1m0 10.06v20.1m0 10.06v20.1m0 10.06v20.1m0 10.06v20.1m0 10.06v20.1m0 10.06v20.1m0 10.05v20.1m0 10.06v20.1m0 10.05v20.1m0 10.06v20.12m0 10.05v20.1m0 10.06v20.1m0 10.05v20.1m0 10.06v20.1m0 10.06v20.1m0 10.06v20.1m0 10.06v20.1m0 10.06v20.1m0 10.05v20.1m0 10.06v20.1m0 10.05v20.1m0 10.06v20.12m0 10.05v20.1m0 10.06v20.1m0 10.06v20.1m0 10.04v20.1m0 10.06v20.1m0 10.06v20.1m0 10.06v20.1m0 10.06v20.1m0 10.06v20.1m0 10.06v20.1m0 10.05v20.1m0 10.06v20.12m0 10.05v20.1m0 10.06v10.05l-.1 1.18-.27 1.14-.45 1.1-.62 1-.76.9-.9.76-1 .62-1.1.45-1.14.28-1.18.1-1.18.1-1.14.27-1.1.45-1 .62-.9.76-.76.9-.62 1-.45 1.1-.28 1.14-.1 1.18v10m0 10.02v20.02m0 10.02v20.02m0 10v20.03m0 10v20.04m0 10v20.03m0 10v20.04m0 10v20.03m0 10v20.03m0 10v20.04m0 10v20.03m0 10v20.04m0 10.02v20.02m0 10v20.03m0 10.02v20m0 10.02v20.02m0 10v20.04m0 10v20.03m0 10.02v20.03m0 10v20.03m0 10v20.03m0 10.03v20.02m0 10v20.03m0 10v20.04m0 10v20.03m0 10v20.03m0 10.02v20.02m0 10v20.03m0 10v20.04m0 10v20.02m0 10v20.03m0 10.02v20.02m0 10v20.02m0 10.02v20.02m0 10v20.03m0 10v20.03m0 10v20.03m0 10v20.03m0 10v20.03m0 10v20.03m0 10v20.04m0 10v20.03m0 10v20.04m0 10V3839m0 10v20.03m0 10v20.04m0 10v20.03m0 10v20.04m0 10v20.03m0 10v20.03m0 10.02v20.02m0 10v20.03m0 10v20.04m0 10.02v20.02m0 10v20.03m0 10.02v20m0 10.02v20.02m0 10v20.04m0 10v10.02" stroke="#333" fill="none"/><path d="M575.5 622.5h-.94v-.5h.95z" stroke="#333" stroke-width=".05" fill="#333"/><path d="M560 4279.5v.5" stroke="#333" fill="none"/><path d="M-415.04 508a8 8 0 0 1 8-8h174.08a8 8 0 0 1 8 8v106a8 8 0 0 1-8 8h-174.08a8 8 0 0 1-8-8z" stroke="#000" stroke-opacity="0" fill="#6db1ff"/><use xlink:href="#e" transform="matrix(1,0,0,1,-407.03761906492343,508) translate(35.425925925925924 56.55555555555555)"/><use xlink:href="#f" transform="matrix(1,0,0,1,-407.03761906492343,508) translate(76.51234567901236 56.55555555555555)"/><path d="M-52.2 508a8 8 0 0 1 8-8h174.08a8 8 0 0 1 8 8v106a8 8 0 0 1-8 8H-44.2a8 8 0 0 1-8-8z" stroke="#000" stroke-opacity="0" fill="#6db1ff"/><use xlink:href="#g" transform="matrix(1,0,0,1,-44.19607485517028,508) translate(68.24074074074073 56.55555555555555)"/><path d="M480 508a8 8 0 0 1 8-8h174.08a8 8 0 0 1 8 8v106a8 8 0 0 1-8 8H488a8 8 0 0 1-8-8z" stroke="#000" stroke-opacity="0" fill="#6db1ff"/><use xlink:href="#h" transform="matrix(1,0,0,1,488,508) translate(65.32716049382717 56.55555555555555)"/><path d="M-600.25 519.75c0 10.9-8.84 19.75-19.75 19.75-10.9 0-19.75-8.84-19.75-19.75 0-10.9 8.84-19.75 19.75-19.75 10.9 0 19.75 8.84 19.75 19.75z" stroke="#333" fill="#fff"/><path d="M-620 539.5v47.3a27.6 27.6 0 0 0 4.28 14.76L-580 658m-40-63.2l-40 63.2m0-98.75h80" stroke="#333" fill="none"/><path d="M-660 508a8 8 0 0 1 8-8h64a8 8 0 0 1 8 8v164a8 8 0 0 1-8 8h-64a8 8 0 0 1-8-8z" fill="none"/><use xlink:href="#i" transform="matrix(1,0,0,1,-740,658) translate(101.28395061728395 14.555555555555555)"/><path d="M-629.12 840h275.82M-629.1 840h-.52" stroke="#3a414a" fill="none"/><path d="M-338.54 840l-14.26 4.63v-9.26z" stroke="#3a414a" fill="#3a414a"/><use xlink:href="#j" transform="matrix(1,0,0,1,-579.8385590551195,814.6666666666667) translate(0 14.222222222222223)"/><use xlink:href="#k" transform="matrix(1,0,0,1,-579.8385590551195,814.6666666666667) translate(78.8641975308642 14.222222222222223)"/><use xlink:href="#l" transform="matrix(1,0,0,1,-579.8385590551195,814.6666666666667) translate(99.55555555555557 14.222222222222223)"/><path d="M-336.92 828a8 8 0 0 1 8-8h24a8 8 0 0 1 8 8v404a8 8 0 0 1-8 8h-24a8 8 0 0 1-8-8zM22.84 828a8 8 0 0 1 8-8h24a8 8 0 0 1 8 8v404a8 8 0 0 1-8 8h-24a8 8 0 0 1-8-8z" stroke="#f2f2f2" fill="#ced4db"/><path d="M-295.92 840H5.96" stroke="#3a414a" fill="none"/><path d="M-295.9 840.48h-.52v-.96h.5z" stroke="#3a414a" stroke-width=".05" fill="#3a414a"/><path d="M20.72 840l-14.26 4.63v-9.26z" stroke="#3a414a" fill="#3a414a"/><use xlink:href="#m" transform="matrix(1,0,0,1,-262.7177472486138,814.6666176724277) translate(0 14.222222222222223)"/><use xlink:href="#n" transform="matrix(1,0,0,1,-262.7177472486138,814.6666176724277) translate(37.48148148148149 14.222222222222223)"/><use xlink:href="#o" transform="matrix(1,0,0,1,-262.7177472486138,814.6666176724277) translate(66.0246913580247 14.222222222222223)"/><use xlink:href="#p" transform="matrix(1,0,0,1,-262.7177472486138,814.6666176724277) translate(80.83950617283952 14.222222222222223)"/><use xlink:href="#q" transform="matrix(1,0,0,1,-262.7177472486138,814.6666176724277) translate(166.51851851851853 14.222222222222223)"/><path d="M63.84 842.47h33.5a6 6 0 0 1 6 6v44.16a6 6 0 0 1-6 6h-19" stroke="#3a414a" fill="none"/><path d="M63.85 842.95h-.5V842h.5z" stroke="#3a414a" stroke-width=".05" fill="#3a414a"/><path d="M63.34 898.63h15m7.07 7.07l-14.13-14.14" stroke="#3a414a" fill="#fff"/><use xlink:href="#r" transform="matrix(1,0,0,1,111.34146169263322,859.8848126550881) translate(0 14.222222222222223)"/><use xlink:href="#s" transform="matrix(1,0,0,1,111.34146169263322,859.8848126550881) translate(58.17283950617284 14.222222222222223)"/><use xlink:href="#t" transform="matrix(1,0,0,1,111.34146169263322,859.8848126550881) translate(122.37037037037038 14.222222222222223)"/><path d="M21.84 900h-301.88" stroke="#3a414a" fill="none"/><path d="M22.34 900.48h-.5v-.96h.5z" stroke="#3a414a" stroke-width=".05" fill="#3a414a"/><path d="M-294.8 900l14.26-4.63v9.27z" stroke="#3a414a" fill="#3a414a"/><use xlink:href="#u" transform="matrix(1,0,0,1,-182.8658916553746,874.666467945431) translate(0 14.222222222222223)"/><use xlink:href="#v" transform="matrix(1,0,0,1,-182.8658916553746,874.666467945431) translate(62.024691358024704 14.222222222222223)"/><path d="M-295.92 959.48H5.96" stroke="#3a414a" fill="none"/><path d="M-295.9 959.96h-.52V959h.5z" stroke="#3a414a" stroke-width=".05" fill="#3a414a"/><path d="M20.72 959.48l-14.26 4.64v-9.27z" stroke="#3a414a" fill="#3a414a"/><use xlink:href="#w" transform="matrix(1,0,0,1,-209.48315530694947,934.1504087789223) translate(0 14.222222222222223)"/><use xlink:href="#x" transform="matrix(1,0,0,1,-209.48315530694947,934.1504087789223) translate(37.48148148148149 14.222222222222223)"/><path d="M555.04 1028a8 8 0 0 1 8-8h24a8 8 0 0 1 8 8v84a8 8 0 0 1-8 8h-24a8 8 0 0 1-8-8z" stroke="#f2f2f2" fill="#ced4db"/><path d="M63.84 958.02h33.5a6 6 0 0 1 6 6v29.85a6 6 0 0 1-6 6H79.72" stroke="#3a414a" fill="none"/><path d="M63.85 958.5h-.5v-.95h.5z" stroke="#3a414a" stroke-width=".05" fill="#3a414a"/><path d="M64.96 999.87l14.27-4.64v9.27z" stroke="#3a414a" fill="#3a414a"/><use xlink:href="#r" transform="matrix(1,0,0,1,111.34148675055323,968.2772092290222) translate(0 14.222222222222223)"/><use xlink:href="#y" transform="matrix(1,0,0,1,111.34148675055323,968.2772092290222) translate(58.17283950617284 14.222222222222223)"/><use xlink:href="#t" transform="matrix(1,0,0,1,111.34148675055323,968.2772092290222) translate(123.25925925925927 14.222222222222223)"/><path d="M63.84 1039.07H538.14" stroke="#3a414a" fill="none"/><path d="M63.85 1039.54h-.5v-.95h.5z" stroke="#3a414a" stroke-width=".05" fill="#3a414a"/><path d="M552.92 1039.07l-14.27 4.63v-9.27z" stroke="#3a414a" fill="#3a414a"/><use xlink:href="#z" transform="matrix(1,0,0,1,202.98894340639328,1013.732593204753) translate(0 14.222222222222223)"/><use xlink:href="#A" transform="matrix(1,0,0,1,202.98894340639328,1013.732593204753) translate(37.48148148148149 14.222222222222223)"/><use xlink:href="#B" transform="matrix(1,0,0,1,202.98894340639328,1013.732593204753) translate(66.0246913580247 14.222222222222223)"/><use xlink:href="#C" transform="matrix(1,0,0,1,202.98894340639328,1013.732593204753) translate(105.4814814814815 14.222222222222223)"/><use xlink:href="#D" transform="matrix(1,0,0,1,202.98894340639328,1013.732593204753) translate(154.76543209876544 14.222222222222223)"/><path d="M554.04 1096.35H79.74" stroke="#3a414a" fill="none"/><path d="M554.54 1096.05v.78h-.5v-.95h.5z" stroke="#3a414a" stroke-width=".05" fill="#3a414a"/><path d="M64.96 1096.35l14.27-4.63v9.26z" stroke="#3a414a" fill="#3a414a"/><use xlink:href="#E" transform="matrix(1,0,0,1,224.71738228194573,1071.0167565118775) translate(0 14.222222222222223)"/><use xlink:href="#C" transform="matrix(1,0,0,1,224.71738228194573,1071.0167565118775) translate(62.024691358024704 14.222222222222223)"/><use xlink:href="#D" transform="matrix(1,0,0,1,224.71738228194573,1071.0167565118775) translate(111.30864197530866 14.222222222222223)"/><path d="M63.84 1137.43h33.5a6 6 0 0 1 6 6v31.03a6 6 0 0 1-6 6H79.72" stroke="#3a414a" fill="none"/><path d="M63.85 1137.9h-.5v-.95h.5z" stroke="#3a414a" stroke-width=".05" fill="#3a414a"/><path d="M64.96 1180.46l14.27-4.64v9.27z" stroke="#3a414a" fill="#3a414a"/><use xlink:href="#F" transform="matrix(1,0,0,1,111.34153145197564,1148.2757946971826) translate(0 14.222222222222223)"/><use xlink:href="#C" transform="matrix(1,0,0,1,111.34153145197564,1148.2757946971826) translate(46.41975308641976 14.222222222222223)"/><use xlink:href="#G" transform="matrix(1,0,0,1,111.34153145197564,1148.2757946971826) translate(95.70370370370372 14.222222222222223)"/><use xlink:href="#H" transform="matrix(1,0,0,1,111.34153145197564,1148.2757946971826) translate(157.7777777777778 14.222222222222223)"/><use xlink:href="#I" transform="matrix(1,0,0,1,111.34153145197564,1148.2757946971826) translate(194.22222222222226 14.222222222222223)"/><use xlink:href="#s" transform="matrix(1,0,0,1,111.34153145197564,1148.2757946971826) translate(224.79012345679016 14.222222222222223)"/><use xlink:href="#J" transform="matrix(1,0,0,1,111.34153145197564,1148.2757946971826) translate(288.9876543209877 14.222222222222223)"/><use xlink:href="#K" transform="matrix(1,0,0,1,111.34153145197564,1148.2757946971826) translate(325.43209876543216 14.222222222222223)"/><use xlink:href="#L" transform="matrix(1,0,0,1,111.34153145197564,1148.2757946971826) translate(390.5185185185186 14.222222222222223)"/><use xlink:href="#M" transform="matrix(1,0,0,1,111.34153145197564,1148.2757946971826) translate(452.59259259259267 14.222222222222223)"/><use xlink:href="#N" transform="matrix(1,0,0,1,111.34153145197564,1148.2757946971826) translate(473.283950617284 14.222222222222223)"/><path d="M21.84 1220.1h-301.88" stroke="#3a414a" fill="none"/><path d="M22.34 1220.58h-.5v-.95h.5z" stroke="#3a414a" stroke-width=".05" fill="#3a414a"/><path d="M-294.8 1220.1l14.26-4.63v9.27z" stroke="#3a414a" fill="#3a414a"/><use xlink:href="#u" transform="matrix(1,0,0,1,-181.35964688264391,1194.7731164045472) translate(0 14.222222222222223)"/><use xlink:href="#O" transform="matrix(1,0,0,1,-181.35964688264391,1194.7731164045472) translate(62.024691358024704 14.222222222222223)"/><path d="M100 1106a6 6 0 0 1 6-6h228a6 6 0 0 1 6 6v48a6 6 0 0 1-6 6H106a6 6 0 0 1-6-6z" fill="none"/><path d="M596.04 1045.34h33.5a6 6 0 0 1 6 6v26.3a6 6 0 0 1-6 6h-17.62" stroke="#3a414a" fill="none"/><path d="M596.05 1045.82h-.5v-.95h.5z" stroke="#3a414a" stroke-width=".05" fill="#3a414a"/><path d="M597.16 1083.64l14.26-4.64v9.27z" stroke="#3a414a" fill="#3a414a"/><use xlink:href="#P" transform="matrix(1,0,0,1,643.5375852991017,1053.8230928276537) translate(0 14.222222222222223)"/><use xlink:href="#Q" transform="matrix(1,0,0,1,643.5375852991017,1053.8230928276537) translate(58.17283950617284 14.222222222222223)"/><use xlink:href="#R" transform="matrix(1,0,0,1,643.5375852991017,1053.8230928276537) translate(94.61728395061729 14.222222222222223)"/><use xlink:href="#S" transform="matrix(1,0,0,1,643.5375852991017,1053.8230928276537) translate(150.8641975308642 14.222222222222223)"/><path d="M-340 1468a8 8 0 0 1 8-8h24a8 8 0 0 1 8 8v304a8 8 0 0 1-8 8h-24a8 8 0 0 1-8-8zM22.84 1468a8 8 0 0 1 8-8h24a8 8 0 0 1 8 8v204a8 8 0 0 1-8 8h-24a8 8 0 0 1-8-8z" stroke="#f2f2f2" fill="#ced4db"/><path d="M-629.12 1474.15h272.24M-629.1 1474.15h-.52" stroke="#3a414a" fill="none"/><path d="M-342.12 1474.15l-14.26 4.64v-9.28z" stroke="#3a414a" fill="#3a414a"/><g><use xlink:href="#j" transform="matrix(1,0,0,1,-581.6293462137941,1448.8177902790537) translate(0 14.222222222222223)"/><use xlink:href="#k" transform="matrix(1,0,0,1,-581.6293462137941,1448.8177902790537) translate(78.8641975308642 14.222222222222223)"/><use xlink:href="#l" transform="matrix(1,0,0,1,-581.6293462137941,1448.8177902790537) translate(99.55555555555557 14.222222222222223)"/></g><path d="M-299 1476.9H5.96" stroke="#3a414a" fill="none"/><path d="M-299 1477.36h-.5v-.95h.5z" stroke="#3a414a" stroke-width=".05" fill="#3a414a"/><path d="M20.72 1476.9l-14.26 4.62v-9.27z" stroke="#3a414a" fill="#3a414a"/><g><use xlink:href="#m" transform="matrix(1,0,0,1,-264.2585274471272,1451.5523030405514) translate(0 14.222222222222223)"/><use xlink:href="#n" transform="matrix(1,0,0,1,-264.2585274471272,1451.5523030405514) translate(37.48148148148149 14.222222222222223)"/><use xlink:href="#o" transform="matrix(1,0,0,1,-264.2585274471272,1451.5523030405514) translate(66.0246913580247 14.222222222222223)"/><use xlink:href="#p" transform="matrix(1,0,0,1,-264.2585274471272,1451.5523030405514) translate(80.83950617283952 14.222222222222223)"/><use xlink:href="#q" transform="matrix(1,0,0,1,-264.2585274471272,1451.5523030405514) translate(166.51851851851853 14.222222222222223)"/></g><path d="M63.84 1476.9h33.5a6 6 0 0 1 6 6v50.03a6 6 0 0 1-6 6h-19" stroke="#3a414a" fill="none"/><path d="M63.85 1477.36h-.5v-.95h.5z" stroke="#3a414a" stroke-width=".05" fill="#3a414a"/><path d="M63.34 1538.93h15m7.07 7.07l-14.13-14.14" stroke="#3a414a" fill="#fff"/><g><use xlink:href="#r" transform="matrix(1,0,0,1,111.34147898081842,1497.2426060513717) translate(0 14.222222222222223)"/><use xlink:href="#s" transform="matrix(1,0,0,1,111.34147898081842,1497.2426060513717) translate(58.17283950617284 14.222222222222223)"/><use xlink:href="#t" transform="matrix(1,0,0,1,111.34147898081842,1497.2426060513717) translate(122.37037037037038 14.222222222222223)"/></g><path d="M21.84 1542.24H-283.1" stroke="#3a414a" fill="none"/><path d="M22.34 1542.7h-.5v-.94h.5z" stroke="#3a414a" stroke-width=".05" fill="#3a414a"/><path d="M-297.88 1542.24l14.26-4.64v9.27z" stroke="#3a414a" fill="#3a414a"/><g><use xlink:href="#u" transform="matrix(1,0,0,1,-184.40641230957775,1516.9024775333646) translate(0 14.222222222222223)"/><use xlink:href="#v" transform="matrix(1,0,0,1,-184.40641230957775,1516.9024775333646) translate(62.024691358024704 14.222222222222223)"/></g><path d="M-299 1603.13H5.96" stroke="#3a414a" fill="none"/><path d="M-299 1603.6h-.5v-.95h.5z" stroke="#3a414a" stroke-width=".05" fill="#3a414a"/><path d="M20.72 1603.13l-14.26 4.63v-9.27z" stroke="#3a414a" fill="#3a414a"/><g><use xlink:href="#w" transform="matrix(1,0,0,1,-211.02366889073227,1577.795077245945) translate(0 14.222222222222223)"/><use xlink:href="#x" transform="matrix(1,0,0,1,-211.02366889073227,1577.795077245945) translate(37.48148148148149 14.222222222222223)"/></g><path d="M63.84 1601.4h33.5a6 6 0 0 1 6 6v43.24a6 6 0 0 1-6 6H79.72" stroke="#3a414a" fill="none"/><path d="M63.85 1601.87h-.5v-.95h.5z" stroke="#3a414a" stroke-width=".05" fill="#3a414a"/><path d="M64.96 1656.64l14.27-4.64v9.27z" stroke="#3a414a" fill="#3a414a"/><g><use xlink:href="#r" transform="matrix(1,0,0,1,111.34153667927433,1618.351289002765) translate(0 14.222222222222223)"/><use xlink:href="#y" transform="matrix(1,0,0,1,111.34153667927433,1618.351289002765) translate(58.17283950617284 14.222222222222223)"/><use xlink:href="#t" transform="matrix(1,0,0,1,111.34153667927433,1618.351289002765) translate(123.25925925925927 14.222222222222223)"/></g><path d="M21.84 1660.37H-283.1" stroke="#3a414a" fill="none"/><path d="M22.34 1660.85h-.5v-.95h.5z" stroke="#3a414a" stroke-width=".05" fill="#3a414a"/><path d="M-297.88 1660.37l14.26-4.63v9.27z" stroke="#3a414a" fill="#3a414a"/><g><use xlink:href="#u" transform="matrix(1,0,0,1,-184.40636725477833,1635.0391980668383) translate(0 14.222222222222223)"/><use xlink:href="#v" transform="matrix(1,0,0,1,-184.40636725477833,1635.0391980668383) translate(62.024691358024704 14.222222222222223)"/></g><path d="M-299 1720.7h33.5a6 6 0 0 1 6 6v26.86a6 6 0 0 1-6 6h-17.62" stroke="#3a414a" fill="none"/><path d="M-299 1721.18h-.5v-.95h.5z" stroke="#3a414a" stroke-width=".05" fill="#3a414a"/><path d="M-297.88 1759.56l14.26-4.64v9.27z" stroke="#3a414a" fill="#3a414a"/><g><use xlink:href="#T" transform="matrix(1,0,0,1,-251.50000409328652,1729.465246646316) translate(0 14.222222222222223)"/><use xlink:href="#U" transform="matrix(1,0,0,1,-251.50000409328652,1729.465246646316) translate(45.23456790123457 14.222222222222223)"/><use xlink:href="#V" transform="matrix(1,0,0,1,-251.50000409328652,1729.465246646316) translate(110.320987654321 14.222222222222223)"/><use xlink:href="#W" transform="matrix(1,0,0,1,-251.50000409328652,1729.465246646316) translate(167.55555555555557 14.222222222222223)"/></g><defs><path fill="#3a414a" d="M233-177c-1 41-23 64-60 70L243 0h-38l-65-103H63V0H30v-248c88 3 205-21 203 71zM63-129c60-2 137 13 137-47 0-61-80-42-137-45v92" id="X"/><path fill="#3a414a" d="M100-194c63 0 86 42 84 106H49c0 40 14 67 53 68 26 1 43-12 49-29l28 8c-11 28-37 45-77 45C44 4 14-33 15-96c1-61 26-98 85-98zm52 81c6-60-76-77-97-28-3 7-6 17-6 28h103" id="Y"/><path fill="#3a414a" d="M117-194c89-4 53 116 60 194h-32v-121c0-31-8-49-39-48C34-167 62-67 57 0H25l-1-190h30c1 10-1 24 2 32 11-22 29-35 61-36" id="Z"/><path fill="#3a414a" d="M206 0h-36l-40-164L89 0H53L-1-190h32L70-26l43-164h34l41 164 42-164h31" id="aa"/><g id="a"><use transform="matrix(0.06172839506172839,0,0,0.06172839506172839,0,0)" xlink:href="#X"/><use transform="matrix(0.06172839506172839,0,0,0.06172839506172839,15.987654320987653,0)" xlink:href="#Y"/><use transform="matrix(0.06172839506172839,0,0,0.06172839506172839,28.333333333333332,0)" xlink:href="#Z"/><use transform="matrix(0.06172839506172839,0,0,0.06172839506172839,40.67901234567901,0)" xlink:href="#Y"/><use transform="matrix(0.06172839506172839,0,0,0.06172839506172839,53.02469135802469,0)" xlink:href="#aa"/></g><path fill="#3a414a" d="M24-231v-30h32v30H24zM24 0v-190h32V0H24" id="ab"/><path fill="#3a414a" d="M59-47c-2 24 18 29 38 22v24C64 9 27 4 27-40v-127H5v-23h24l9-43h21v43h35v23H59v120" id="ac"/><path fill="#3a414a" d="M106-169C34-169 62-67 57 0H25v-261h32l-1 103c12-21 28-36 61-36 89 0 53 116 60 194h-32v-121c2-32-8-49-39-48" id="ad"/><g id="b"><use transform="matrix(0.06172839506172839,0,0,0.06172839506172839,0,0)" xlink:href="#aa"/><use transform="matrix(0.06172839506172839,0,0,0.06172839506172839,15.987654320987653,0)" xlink:href="#ab"/><use transform="matrix(0.06172839506172839,0,0,0.06172839506172839,20.864197530864196,0)" xlink:href="#ac"/><use transform="matrix(0.06172839506172839,0,0,0.06172839506172839,27.037037037037035,0)" xlink:href="#ad"/></g><path fill="#3a414a" d="M114-163C36-179 61-72 57 0H25l-1-190h30c1 12-1 29 2 39 6-27 23-49 58-41v29" id="ae"/><path fill="#3a414a" d="M101-234c-31-9-42 10-38 44h38v23H63V0H32v-167H5v-23h27c-7-52 17-82 69-68v24" id="af"/><path fill="#3a414a" d="M135-143c-3-34-86-38-87 0 15 53 115 12 119 90S17 21 10-45l28-5c4 36 97 45 98 0-10-56-113-15-118-90-4-57 82-63 122-42 12 7 21 19 24 35" id="ag"/><g id="c"><use transform="matrix(0.06172839506172839,0,0,0.06172839506172839,0,0)" xlink:href="#ae"/><use transform="matrix(0.06172839506172839,0,0,0.06172839506172839,7.345679012345679,0)" xlink:href="#Y"/><use transform="matrix(0.06172839506172839,0,0,0.06172839506172839,19.691358024691358,0)" xlink:href="#af"/><use transform="matrix(0.06172839506172839,0,0,0.06172839506172839,25.864197530864196,0)" xlink:href="#ae"/><use transform="matrix(0.06172839506172839,0,0,0.06172839506172839,33.20987654320987,0)" xlink:href="#Y"/><use transform="matrix(0.06172839506172839,0,0,0.06172839506172839,45.55555555555555,0)" xlink:href="#ag"/><use transform="matrix(0.06172839506172839,0,0,0.06172839506172839,56.66666666666666,0)" xlink:href="#ad"/></g><g id="d"><use transform="matrix(0.06172839506172839,0,0,0.06172839506172839,0,0)" xlink:href="#X"/><use transform="matrix(0.06172839506172839,0,0,0.06172839506172839,15.987654320987653,0)" xlink:href="#Y"/><use transform="matrix(0.06172839506172839,0,0,0.06172839506172839,28.333333333333332,0)" xlink:href="#af"/><use transform="matrix(0.06172839506172839,0,0,0.06172839506172839,34.50617283950617,0)" xlink:href="#ae"/><use transform="matrix(0.06172839506172839,0,0,0.06172839506172839,41.85185185185185,0)" xlink:href="#Y"/><use transform="matrix(0.06172839506172839,0,0,0.06172839506172839,54.197530864197525,0)" xlink:href="#ag"/><use transform="matrix(0.06172839506172839,0,0,0.06172839506172839,65.30864197530863,0)" xlink:href="#ad"/></g><path fill="#333" d="M266 0h-40l-56-210L115 0H75L2-248h35L96-30l15-64 43-154h32l59 218 59-218h35" id="ah"/><path fill="#333" d="M100-194c63 0 86 42 84 106H49c0 40 14 67 53 68 26 1 43-12 49-29l28 8c-11 28-37 45-77 45C44 4 14-33 15-96c1-61 26-98 85-98zm52 81c6-60-76-77-97-28-3 7-6 17-6 28h103" id="ai"/><path fill="#333" d="M115-194c53 0 69 39 70 98 0 66-23 100-70 100C84 3 66-7 56-30L54 0H23l1-261h32v101c10-23 28-34 59-34zm-8 174c40 0 45-34 45-75 0-40-5-75-45-74-42 0-51 32-51 76 0 43 10 73 51 73" id="aj"/><g id="e"><use transform="matrix(0.04938271604938272,0,0,0.04938271604938272,0,0)" xlink:href="#ah"/><use transform="matrix(0.04938271604938272,0,0,0.04938271604938272,16.39506172839506,0)" xlink:href="#ai"/><use transform="matrix(0.04938271604938272,0,0,0.04938271604938272,26.271604938271608,0)" xlink:href="#aj"/><path fill="#333" d="M-.9 1.23h42.87v1.3H-.9z"/></g><path fill="#333" d="M114-163C36-179 61-72 57 0H25l-1-190h30c1 12-1 29 2 39 6-27 23-49 58-41v29" id="ak"/><path fill="#333" d="M100-194c62-1 85 37 85 99 1 63-27 99-86 99S16-35 15-95c0-66 28-99 85-99zM99-20c44 1 53-31 53-75 0-43-8-75-51-75s-53 32-53 75 10 74 51 75" id="al"/><path fill="#333" d="M206 0h-36l-40-164L89 0H53L-1-190h32L70-26l43-164h34l41 164 42-164h31" id="am"/><path fill="#333" d="M135-143c-3-34-86-38-87 0 15 53 115 12 119 90S17 21 10-45l28-5c4 36 97 45 98 0-10-56-113-15-118-90-4-57 82-63 122-42 12 7 21 19 24 35" id="an"/><g id="f"><use transform="matrix(0.04938271604938272,0,0,0.04938271604938272,0,0)" xlink:href="#aj"/><use transform="matrix(0.04938271604938272,0,0,0.04938271604938272,9.876543209876544,0)" xlink:href="#ak"/><use transform="matrix(0.04938271604938272,0,0,0.04938271604938272,15.753086419753087,0)" xlink:href="#al"/><use transform="matrix(0.04938271604938272,0,0,0.04938271604938272,25.629629629629633,0)" xlink:href="#am"/><use transform="matrix(0.04938271604938272,0,0,0.04938271604938272,38.41975308641976,0)" xlink:href="#an"/><use transform="matrix(0.04938271604938272,0,0,0.04938271604938272,47.308641975308646,0)" xlink:href="#ai"/><use transform="matrix(0.04938271604938272,0,0,0.04938271604938272,57.18518518518519,0)" xlink:href="#ak"/><path fill="#333" d="M-.9 1.23h64.85v1.3H-.9z"/></g><path fill="#333" d="M30 0v-248h33v221h125V0H30" id="ao"/><path fill="#333" d="M141-36C126-15 110 5 73 4 37 3 15-17 15-53c-1-64 63-63 125-63 3-35-9-54-41-54-24 1-41 7-42 31l-33-3c5-37 33-52 76-52 45 0 72 20 72 64v82c-1 20 7 32 28 27v20c-31 9-61-2-59-35zM48-53c0 20 12 33 32 33 41-3 63-29 60-74-43 2-92-5-92 41" id="ap"/><path fill="#333" d="M108 0H70L1-190h34L89-25l56-165h34" id="aq"/><g id="g"><use transform="matrix(0.04938271604938272,0,0,0.04938271604938272,0,0)" xlink:href="#ao"/><use transform="matrix(0.04938271604938272,0,0,0.04938271604938272,9.876543209876544,0)" xlink:href="#ai"/><use transform="matrix(0.04938271604938272,0,0,0.04938271604938272,19.75308641975309,0)" xlink:href="#ap"/><use transform="matrix(0.04938271604938272,0,0,0.04938271604938272,29.629629629629633,0)" xlink:href="#aq"/><path fill="#333" d="M-.9 1.23h40.3v1.3H-.9z"/></g><path fill="#333" d="M140-251c81 0 123 46 123 126C263-46 219 4 140 4 59 4 17-45 17-125s42-126 123-126zm0 227c63 0 89-41 89-101s-29-99-89-99c-61 0-89 39-89 99S79-25 140-24" id="ar"/><path fill="#333" d="M33 0v-248h34V0H33" id="as"/><path fill="#333" d="M30-248c118-7 216 8 213 122C240-48 200 0 122 0H30v-248zM63-27c89 8 146-16 146-99s-60-101-146-95v194" id="at"/><path fill="#333" d="M212-179c-10-28-35-45-73-45-59 0-87 40-87 99 0 60 29 101 89 101 43 0 62-24 78-52l27 14C228-24 195 4 139 4 59 4 22-46 18-125c-6-104 99-153 187-111 19 9 31 26 39 46" id="au"/><g id="h"><use transform="matrix(0.04938271604938272,0,0,0.04938271604938272,0,0)" xlink:href="#ar"/><use transform="matrix(0.04938271604938272,0,0,0.04938271604938272,13.827160493827162,0)" xlink:href="#as"/><use transform="matrix(0.04938271604938272,0,0,0.04938271604938272,18.765432098765434,0)" xlink:href="#at"/><use transform="matrix(0.04938271604938272,0,0,0.04938271604938272,31.555555555555557,0)" xlink:href="#au"/><path fill="#333" d="M-.9 1.23h46.13v1.3H-.9z"/></g><path fill="#3a414a" d="M232-93c-1 65-40 97-104 97C67 4 28-28 28-90v-158h33c8 89-33 224 67 224 102 0 64-133 71-224h33v155" id="av"/><g id="i"><use transform="matrix(0.04938271604938272,0,0,0.04938271604938272,0,0)" xlink:href="#av"/><use transform="matrix(0.04938271604938272,0,0,0.04938271604938272,12.790123456790125,0)" xlink:href="#ag"/><use transform="matrix(0.04938271604938272,0,0,0.04938271604938272,21.679012345679013,0)" xlink:href="#Y"/><use transform="matrix(0.04938271604938272,0,0,0.04938271604938272,31.555555555555557,0)" xlink:href="#ae"/></g><path fill="#3a414a" d="M175 0L67-191c6 58 2 128 3 191H24v-248h59L193-55c-6-58-2-129-3-193h46V0h-61" id="aw"/><path fill="#3a414a" d="M133-34C117-15 103 5 69 4 32 3 11-16 11-54c-1-60 55-63 116-61 1-26-3-47-28-47-18 1-26 9-28 27l-52-2c7-38 36-58 82-57s74 22 75 68l1 82c-1 14 12 18 25 15v27c-30 8-71 5-69-32zm-48 3c29 0 43-24 42-57-32 0-66-3-65 30 0 17 8 27 23 27" id="ax"/><path fill="#3a414a" d="M128 0H69L1-190h53L99-40l48-150h52" id="ay"/><path fill="#3a414a" d="M25-224v-37h50v37H25zM25 0v-190h50V0H25" id="az"/><path fill="#3a414a" d="M195-6C206 82 75 100 31 46c-4-6-6-13-8-21l49-6c3 16 16 24 34 25 40 0 42-37 40-79-11 22-30 35-61 35-53 0-70-43-70-97 0-56 18-96 73-97 30 0 46 14 59 34l2-30h47zm-90-29c32 0 41-27 41-63 0-35-9-62-40-62-32 0-39 29-40 63 0 36 9 62 39 62" id="aA"/><path fill="#3a414a" d="M115-3C79 11 28 4 28-45v-112H4v-33h27l15-45h31v45h36v33H77v99c-1 23 16 31 38 25v30" id="aB"/><path fill="#3a414a" d="M185-48c-13 30-37 53-82 52C43 2 14-33 14-96s30-98 90-98c62 0 83 45 84 108H66c0 31 8 55 39 56 18 0 30-7 34-22zm-45-69c5-46-57-63-70-21-2 6-4 13-4 21h74" id="aC"/><g id="j"><use transform="matrix(0.04938271604938272,0,0,0.04938271604938272,0,0)" xlink:href="#aw"/><use transform="matrix(0.04938271604938272,0,0,0.04938271604938272,12.790123456790125,0)" xlink:href="#ax"/><use transform="matrix(0.04938271604938272,0,0,0.04938271604938272,22.66666666666667,0)" xlink:href="#ay"/><use transform="matrix(0.04938271604938272,0,0,0.04938271604938272,32.543209876543216,0)" xlink:href="#az"/><use transform="matrix(0.04938271604938272,0,0,0.04938271604938272,37.48148148148149,0)" xlink:href="#aA"/><use transform="matrix(0.04938271604938272,0,0,0.04938271604938272,48.296296296296305,0)" xlink:href="#ax"/><use transform="matrix(0.04938271604938272,0,0,0.04938271604938272,58.17283950617284,0)" xlink:href="#aB"/><use transform="matrix(0.04938271604938272,0,0,0.04938271604938272,64.0493827160494,0)" xlink:href="#aC"/></g><path fill="#3a414a" d="M135-194c87-1 58 113 63 194h-50c-7-57 23-157-34-157-59 0-34 97-39 157H25l-1-190h47c2 12-1 28 3 38 12-26 28-41 61-42" id="aD"/><g id="k"><use transform="matrix(0.04938271604938272,0,0,0.04938271604938272,0,0)" xlink:href="#az"/><use transform="matrix(0.04938271604938272,0,0,0.04938271604938272,4.938271604938272,0)" xlink:href="#aD"/></g><path fill="#3a414a" d="M135-194c53 0 70 44 70 98 0 56-19 98-73 100-31 1-45-17-59-34 3 33 2 69 2 105H25l-1-265h48c2 10 0 23 3 31 11-24 29-35 60-35zM114-30c33 0 39-31 40-66 0-38-9-64-40-64-56 0-55 130 0 130" id="aE"/><path fill="#3a414a" d="M25 0v-261h50V0H25" id="aF"/><path fill="#3a414a" d="M190-63c-7 42-38 67-86 67-59 0-84-38-90-98-12-110 154-137 174-36l-49 2c-2-19-15-32-35-32-30 0-35 28-38 64-6 74 65 87 74 30" id="aG"/><path fill="#3a414a" d="M110-194c64 0 96 36 96 99 0 64-35 99-97 99-61 0-95-36-95-99 0-62 34-99 96-99zm-1 164c35 0 45-28 45-65 0-40-10-65-43-65-34 0-45 26-45 65 0 36 10 65 43 65" id="aH"/><g id="l"><use transform="matrix(0.04938271604938272,0,0,0.04938271604938272,0,0)" xlink:href="#ax"/><use transform="matrix(0.04938271604938272,0,0,0.04938271604938272,9.876543209876544,0)" xlink:href="#aE"/><use transform="matrix(0.04938271604938272,0,0,0.04938271604938272,20.69135802469136,0)" xlink:href="#aE"/><use transform="matrix(0.04938271604938272,0,0,0.04938271604938272,31.506172839506174,0)" xlink:href="#aF"/><use transform="matrix(0.04938271604938272,0,0,0.04938271604938272,36.44444444444445,0)" xlink:href="#az"/><use transform="matrix(0.04938271604938272,0,0,0.04938271604938272,41.38271604938272,0)" xlink:href="#aG"/><use transform="matrix(0.04938271604938272,0,0,0.04938271604938272,51.25925925925927,0)" xlink:href="#ax"/><use transform="matrix(0.04938271604938272,0,0,0.04938271604938272,61.13580246913581,0)" xlink:href="#aB"/><use transform="matrix(0.04938271604938272,0,0,0.04938271604938272,67.01234567901236,0)" xlink:href="#az"/><use transform="matrix(0.04938271604938272,0,0,0.04938271604938272,71.95061728395063,0)" xlink:href="#aH"/><use transform="matrix(0.04938271604938272,0,0,0.04938271604938272,82.76543209876544,0)" xlink:href="#aD"/></g><path fill="#3a414a" d="M199 0l-22-63H83L61 0H9l90-248h61L250 0h-51zm-33-102l-36-108c-10 38-24 72-36 108h72" id="aI"/><path fill="#3a414a" d="M137-138c1-29-70-34-71-4 15 46 118 7 119 86 1 83-164 76-172 9l43-7c4 19 20 25 44 25 33 8 57-30 24-41C81-84 22-81 20-136c-2-80 154-74 161-7" id="aJ"/><path fill="#3a414a" d="M147 0L96-86 75-71V0H25v-261h50v150l67-79h53l-66 74L201 0h-54" id="aK"/><g id="m"><use transform="matrix(0.04938271604938272,0,0,0.04938271604938272,0,0)" xlink:href="#aI"/><use transform="matrix(0.04938271604938272,0,0,0.04938271604938272,12.790123456790125,0)" xlink:href="#aJ"/><use transform="matrix(0.04938271604938272,0,0,0.04938271604938272,22.66666666666667,0)" xlink:href="#aK"/></g><path fill="#3a414a" d="M121-226c-27-7-43 5-38 36h38v33H83V0H34v-157H6v-33h28c-9-59 32-81 87-68v32" id="aL"/><path fill="#3a414a" d="M135-150c-39-12-60 13-60 57V0H25l-1-190h47c2 13-1 29 3 40 6-28 27-53 61-41v41" id="aM"/><g id="n"><use transform="matrix(0.04938271604938272,0,0,0.04938271604938272,0,0)" xlink:href="#aL"/><use transform="matrix(0.04938271604938272,0,0,0.04938271604938272,5.8765432098765435,0)" xlink:href="#aH"/><use transform="matrix(0.04938271604938272,0,0,0.04938271604938272,16.691358024691358,0)" xlink:href="#aM"/></g><use transform="matrix(0.04938271604938272,0,0,0.04938271604938272,0,0)" xlink:href="#ax" id="o"/><path fill="#3a414a" d="M88-194c31-1 46 15 58 34l-1-101h50l1 261h-48c-2-10 0-23-3-31C134-8 116 4 84 4 32 4 16-41 15-95c0-56 19-97 73-99zm17 164c33 0 40-30 41-66 1-37-9-64-41-64s-38 30-39 65c0 43 13 65 39 65" id="aN"/><g id="p"><use transform="matrix(0.04938271604938272,0,0,0.04938271604938272,0,0)" xlink:href="#aE"/><use transform="matrix(0.04938271604938272,0,0,0.04938271604938272,10.814814814814815,0)" xlink:href="#aM"/><use transform="matrix(0.04938271604938272,0,0,0.04938271604938272,17.728395061728396,0)" xlink:href="#aH"/><use transform="matrix(0.04938271604938272,0,0,0.04938271604938272,28.543209876543205,0)" xlink:href="#aB"/><use transform="matrix(0.04938271604938272,0,0,0.04938271604938272,34.41975308641975,0)" xlink:href="#aC"/><use transform="matrix(0.04938271604938272,0,0,0.04938271604938272,44.2962962962963,0)" xlink:href="#aG"/><use transform="matrix(0.04938271604938272,0,0,0.04938271604938272,54.17283950617284,0)" xlink:href="#aB"/><use transform="matrix(0.04938271604938272,0,0,0.04938271604938272,60.04938271604939,0)" xlink:href="#aC"/><use transform="matrix(0.04938271604938272,0,0,0.04938271604938272,69.92592592592592,0)" xlink:href="#aN"/></g><path fill="#3a414a" d="M85 4C-2 5 27-109 22-190h50c7 57-23 150 33 157 60-5 35-97 40-157h50l1 190h-47c-2-12 1-28-3-38-12 25-28 42-61 42" id="aO"/><g id="q"><use transform="matrix(0.04938271604938272,0,0,0.04938271604938272,0,0)" xlink:href="#aM"/><use transform="matrix(0.04938271604938272,0,0,0.04938271604938272,6.913580246913581,0)" xlink:href="#aC"/><use transform="matrix(0.04938271604938272,0,0,0.04938271604938272,16.790123456790127,0)" xlink:href="#aJ"/><use transform="matrix(0.04938271604938272,0,0,0.04938271604938272,26.666666666666668,0)" xlink:href="#aJ"/><use transform="matrix(0.04938271604938272,0,0,0.04938271604938272,36.543209876543216,0)" xlink:href="#aH"/><use transform="matrix(0.04938271604938272,0,0,0.04938271604938272,47.35802469135803,0)" xlink:href="#aO"/><use transform="matrix(0.04938271604938272,0,0,0.04938271604938272,58.17283950617284,0)" xlink:href="#aM"/><use transform="matrix(0.04938271604938272,0,0,0.04938271604938272,65.08641975308643,0)" xlink:href="#aG"/><use transform="matrix(0.04938271604938272,0,0,0.04938271604938272,74.96296296296298,0)" xlink:href="#aC"/></g><path fill="#333" d="M67-125c0 53 21 87 73 88 37 1 54-22 65-47l45 17C233-25 199 4 140 4 58 4 20-42 15-125 8-235 124-281 211-232c18 10 29 29 36 50l-46 12c-8-25-30-41-62-41-52 0-71 34-72 86" id="aP"/><path fill="#333" d="M114-157C55-157 80-60 75 0H25v-261h50l-1 109c12-26 28-41 61-42 86-1 58 113 63 194h-50c-7-57 23-157-34-157" id="aQ"/><path fill="#333" d="M185-48c-13 30-37 53-82 52C43 2 14-33 14-96s30-98 90-98c62 0 83 45 84 108H66c0 31 8 55 39 56 18 0 30-7 34-22zm-45-69c5-46-57-63-70-21-2 6-4 13-4 21h74" id="aR"/><path fill="#333" d="M190-63c-7 42-38 67-86 67-59 0-84-38-90-98-12-110 154-137 174-36l-49 2c-2-19-15-32-35-32-30 0-35 28-38 64-6 74 65 87 74 30" id="aS"/><path fill="#333" d="M147 0L96-86 75-71V0H25v-261h50v150l67-79h53l-66 74L201 0h-54" id="aT"/><g id="r"><use transform="matrix(0.04938271604938272,0,0,0.04938271604938272,0,0)" xlink:href="#aP"/><use transform="matrix(0.04938271604938272,0,0,0.04938271604938272,12.790123456790125,0)" xlink:href="#aQ"/><use transform="matrix(0.04938271604938272,0,0,0.04938271604938272,23.60493827160494,0)" xlink:href="#aR"/><use transform="matrix(0.04938271604938272,0,0,0.04938271604938272,33.48148148148148,0)" xlink:href="#aS"/><use transform="matrix(0.04938271604938272,0,0,0.04938271604938272,43.358024691358025,0)" xlink:href="#aT"/></g><path fill="#82755b" d="M133-34C117-15 103 5 69 4 32 3 11-16 11-54c-1-60 55-63 116-61 1-26-3-47-28-47-18 1-26 9-28 27l-52-2c7-38 36-58 82-57s74 22 75 68l1 82c-1 14 12 18 25 15v27c-30 8-71 5-69-32zm-48 3c29 0 43-24 42-57-32 0-66-3-65 30 0 17 8 27 23 27" id="aU"/><path fill="#82755b" d="M190-63c-7 42-38 67-86 67-59 0-84-38-90-98-12-110 154-137 174-36l-49 2c-2-19-15-32-35-32-30 0-35 28-38 64-6 74 65 87 74 30" id="aV"/><path fill="#82755b" d="M185-48c-13 30-37 53-82 52C43 2 14-33 14-96s30-98 90-98c62 0 83 45 84 108H66c0 31 8 55 39 56 18 0 30-7 34-22zm-45-69c5-46-57-63-70-21-2 6-4 13-4 21h74" id="aW"/><path fill="#82755b" d="M137-138c1-29-70-34-71-4 15 46 118 7 119 86 1 83-164 76-172 9l43-7c4 19 20 25 44 25 33 8 57-30 24-41C81-84 22-81 20-136c-2-80 154-74 161-7" id="aX"/><g id="s"><use transform="matrix(0.04938271604938272,0,0,0.04938271604938272,0,0)" xlink:href="#aU"/><use transform="matrix(0.04938271604938272,0,0,0.04938271604938272,9.876543209876544,0)" xlink:href="#aV"/><use transform="matrix(0.04938271604938272,0,0,0.04938271604938272,19.75308641975309,0)" xlink:href="#aV"/><use transform="matrix(0.04938271604938272,0,0,0.04938271604938272,29.629629629629633,0)" xlink:href="#aW"/><use transform="matrix(0.04938271604938272,0,0,0.04938271604938272,39.50617283950618,0)" xlink:href="#aX"/><use transform="matrix(0.04938271604938272,0,0,0.04938271604938272,49.38271604938272,0)" xlink:href="#aX"/></g><path fill="#82755b" d="M115-3C79 11 28 4 28-45v-112H4v-33h27l15-45h31v45h36v33H77v99c-1 23 16 31 38 25v30" id="aY"/><path fill="#82755b" d="M110-194c64 0 96 36 96 99 0 64-35 99-97 99-61 0-95-36-95-99 0-62 34-99 96-99zm-1 164c35 0 45-28 45-65 0-40-10-65-43-65-34 0-45 26-45 65 0 36 10 65 43 65" id="aZ"/><path fill="#82755b" d="M147 0L96-86 75-71V0H25v-261h50v150l67-79h53l-66 74L201 0h-54" id="ba"/><path fill="#82755b" d="M135-194c87-1 58 113 63 194h-50c-7-57 23-157-34-157-59 0-34 97-39 157H25l-1-190h47c2 12-1 28 3 38 12-26 28-41 61-42" id="bb"/><g id="t"><use transform="matrix(0.04938271604938272,0,0,0.04938271604938272,0,0)" xlink:href="#aY"/><use transform="matrix(0.04938271604938272,0,0,0.04938271604938272,5.8765432098765435,0)" xlink:href="#aZ"/><use transform="matrix(0.04938271604938272,0,0,0.04938271604938272,16.691358024691358,0)" xlink:href="#ba"/><use transform="matrix(0.04938271604938272,0,0,0.04938271604938272,26.567901234567902,0)" xlink:href="#aW"/><use transform="matrix(0.04938271604938272,0,0,0.04938271604938272,36.44444444444444,0)" xlink:href="#bb"/></g><path fill="#333" d="M240-174c0 40-23 61-54 70L253 0h-59l-57-94H76V0H24v-248c93 4 217-23 216 74zM76-134c48-2 112 12 112-38 0-48-66-32-112-35v73" id="bc"/><path fill="#333" d="M115-3C79 11 28 4 28-45v-112H4v-33h27l15-45h31v45h36v33H77v99c-1 23 16 31 38 25v30" id="bd"/><path fill="#333" d="M85 4C-2 5 27-109 22-190h50c7 57-23 150 33 157 60-5 35-97 40-157h50l1 190h-47c-2-12 1-28-3-38-12 25-28 42-61 42" id="be"/><path fill="#333" d="M135-150c-39-12-60 13-60 57V0H25l-1-190h47c2 13-1 29 3 40 6-28 27-53 61-41v41" id="bf"/><path fill="#333" d="M135-194c87-1 58 113 63 194h-50c-7-57 23-157-34-157-59 0-34 97-39 157H25l-1-190h47c2 12-1 28 3 38 12-26 28-41 61-42" id="bg"/><g id="u"><use transform="matrix(0.04938271604938272,0,0,0.04938271604938272,0,0)" xlink:href="#bc"/><use transform="matrix(0.04938271604938272,0,0,0.04938271604938272,12.790123456790125,0)" xlink:href="#aR"/><use transform="matrix(0.04938271604938272,0,0,0.04938271604938272,22.66666666666667,0)" xlink:href="#bd"/><use transform="matrix(0.04938271604938272,0,0,0.04938271604938272,28.54320987654322,0)" xlink:href="#be"/><use transform="matrix(0.04938271604938272,0,0,0.04938271604938272,39.35802469135803,0)" xlink:href="#bf"/><use transform="matrix(0.04938271604938272,0,0,0.04938271604938272,46.271604938271615,0)" xlink:href="#bg"/></g><path fill="#333" d="M165-50V0h-47v-50H5v-38l105-160h55v161h33v37h-33zm-47-37l2-116L46-87h72" id="bh"/><path fill="#333" d="M101-251c68 0 84 54 84 127C185-50 166 4 99 4S15-52 14-124c-1-75 17-127 87-127zm-1 216c37-5 36-46 36-89s4-89-36-89c-39 0-36 45-36 89 0 43-3 85 36 89" id="bi"/><path fill="#333" d="M23 0v-37h61v-169l-59 37v-38l62-41h46v211h57V0H23" id="bj"/><g id="v"><use transform="matrix(0.04938271604938272,0,0,0.04938271604938272,0,0)" xlink:href="#bh"/><use transform="matrix(0.04938271604938272,0,0,0.04938271604938272,9.876543209876544,0)" xlink:href="#bi"/><use transform="matrix(0.04938271604938272,0,0,0.04938271604938272,19.75308641975309,0)" xlink:href="#bj"/></g><path fill="#333" d="M133-34C117-15 103 5 69 4 32 3 11-16 11-54c-1-60 55-63 116-61 1-26-3-47-28-47-18 1-26 9-28 27l-52-2c7-38 36-58 82-57s74 22 75 68l1 82c-1 14 12 18 25 15v27c-30 8-71 5-69-32zm-48 3c29 0 43-24 42-57-32 0-66-3-65 30 0 17 8 27 23 27" id="bk"/><path fill="#333" d="M25 0v-261h50V0H25" id="bl"/><g id="w"><use transform="matrix(0.04938271604938272,0,0,0.04938271604938272,0,0)" xlink:href="#aP"/><use transform="matrix(0.04938271604938272,0,0,0.04938271604938272,12.790123456790125,0)" xlink:href="#bk"/><use transform="matrix(0.04938271604938272,0,0,0.04938271604938272,22.66666666666667,0)" xlink:href="#bl"/><use transform="matrix(0.04938271604938272,0,0,0.04938271604938272,27.604938271604947,0)" xlink:href="#bl"/></g><path fill="#333" d="M4 7l51-268h42L46 7H4" id="bm"/><path fill="#333" d="M121-226c-27-7-43 5-38 36h38v33H83V0H34v-157H6v-33h28c-9-59 32-81 87-68v32" id="bn"/><path fill="#333" d="M137-138c1-29-70-34-71-4 15 46 118 7 119 86 1 83-164 76-172 9l43-7c4 19 20 25 44 25 33 8 57-30 24-41C81-84 22-81 20-136c-2-80 154-74 161-7" id="bo"/><g id="x"><use transform="matrix(0.04938271604938272,0,0,0.04938271604938272,0,0)" xlink:href="#bm"/><use transform="matrix(0.04938271604938272,0,0,0.04938271604938272,4.938271604938272,0)" xlink:href="#bk"/><use transform="matrix(0.04938271604938272,0,0,0.04938271604938272,14.814814814814817,0)" xlink:href="#be"/><use transform="matrix(0.04938271604938272,0,0,0.04938271604938272,25.629629629629633,0)" xlink:href="#bd"/><use transform="matrix(0.04938271604938272,0,0,0.04938271604938272,31.506172839506174,0)" xlink:href="#aQ"/><use transform="matrix(0.04938271604938272,0,0,0.04938271604938272,42.320987654320994,0)" xlink:href="#bm"/><use transform="matrix(0.04938271604938272,0,0,0.04938271604938272,47.25925925925927,0)" xlink:href="#bf"/><use transform="matrix(0.04938271604938272,0,0,0.04938271604938272,54.17283950617284,0)" xlink:href="#aR"/><use transform="matrix(0.04938271604938272,0,0,0.04938271604938272,64.0493827160494,0)" xlink:href="#bn"/><use transform="matrix(0.04938271604938272,0,0,0.04938271604938272,69.92592592592594,0)" xlink:href="#bf"/><use transform="matrix(0.04938271604938272,0,0,0.04938271604938272,76.83950617283952,0)" xlink:href="#aR"/><use transform="matrix(0.04938271604938272,0,0,0.04938271604938272,86.71604938271606,0)" xlink:href="#bo"/><use transform="matrix(0.04938271604938272,0,0,0.04938271604938272,96.59259259259261,0)" xlink:href="#aQ"/></g><path fill="#82755b" d="M135-150c-39-12-60 13-60 57V0H25l-1-190h47c2 13-1 29 3 40 6-28 27-53 61-41v41" id="bp"/><path fill="#82755b" d="M121-226c-27-7-43 5-38 36h38v33H83V0H34v-157H6v-33h28c-9-59 32-81 87-68v32" id="bq"/><path fill="#82755b" d="M114-157C55-157 80-60 75 0H25v-261h50l-1 109c12-26 28-41 61-42 86-1 58 113 63 194h-50c-7-57 23-157-34-157" id="br"/><g id="y"><use transform="matrix(0.04938271604938272,0,0,0.04938271604938272,0,0)" xlink:href="#bp"/><use transform="matrix(0.04938271604938272,0,0,0.04938271604938272,6.913580246913581,0)" xlink:href="#aW"/><use transform="matrix(0.04938271604938272,0,0,0.04938271604938272,16.790123456790127,0)" xlink:href="#bq"/><use transform="matrix(0.04938271604938272,0,0,0.04938271604938272,22.66666666666667,0)" xlink:href="#bp"/><use transform="matrix(0.04938271604938272,0,0,0.04938271604938272,29.580246913580254,0)" xlink:href="#aW"/><use transform="matrix(0.04938271604938272,0,0,0.04938271604938272,39.4567901234568,0)" xlink:href="#aX"/><use transform="matrix(0.04938271604938272,0,0,0.04938271604938272,49.33333333333334,0)" xlink:href="#br"/></g><path fill="#333" d="M199 0l-22-63H83L61 0H9l90-248h61L250 0h-51zm-33-102l-36-108c-10 38-24 72-36 108h72" id="bs"/><g id="z"><use transform="matrix(0.04938271604938272,0,0,0.04938271604938272,0,0)" xlink:href="#bs"/><use transform="matrix(0.04938271604938272,0,0,0.04938271604938272,12.790123456790125,0)" xlink:href="#bo"/><use transform="matrix(0.04938271604938272,0,0,0.04938271604938272,22.66666666666667,0)" xlink:href="#aT"/></g><path fill="#333" d="M110-194c64 0 96 36 96 99 0 64-35 99-97 99-61 0-95-36-95-99 0-62 34-99 96-99zm-1 164c35 0 45-28 45-65 0-40-10-65-43-65-34 0-45 26-45 65 0 36 10 65 43 65" id="bt"/><g id="A"><use transform="matrix(0.04938271604938272,0,0,0.04938271604938272,0,0)" xlink:href="#bn"/><use transform="matrix(0.04938271604938272,0,0,0.04938271604938272,5.8765432098765435,0)" xlink:href="#bt"/><use transform="matrix(0.04938271604938272,0,0,0.04938271604938272,16.691358024691358,0)" xlink:href="#bf"/></g><path fill="#333" d="M231 0h-52l-39-155L100 0H48L-1-190h46L77-45c9-52 24-97 36-145h53l37 145 32-145h46" id="bu"/><g id="B"><use transform="matrix(0.04938271604938272,0,0,0.04938271604938272,0,0)" xlink:href="#bg"/><use transform="matrix(0.04938271604938272,0,0,0.04938271604938272,10.814814814814815,0)" xlink:href="#aR"/><use transform="matrix(0.04938271604938272,0,0,0.04938271604938272,20.69135802469136,0)" xlink:href="#bu"/></g><path fill="#008573" d="M140-251c80 0 125 45 125 126S219 4 139 4C58 4 15-44 15-125s44-126 125-126zm-1 214c52 0 73-35 73-88 0-50-21-86-72-86-52 0-73 35-73 86s22 88 72 88" id="bv"/><path fill="#008573" d="M24 0v-248h52V0H24" id="bw"/><path fill="#008573" d="M24-248c120-7 223 5 221 122C244-46 201 0 124 0H24v-248zM76-40c74 7 117-18 117-86 0-67-45-88-117-82v168" id="bx"/><path fill="#008573" d="M67-125c0 53 21 87 73 88 37 1 54-22 65-47l45 17C233-25 199 4 140 4 58 4 20-42 15-125 8-235 124-281 211-232c18 10 29 29 36 50l-46 12c-8-25-30-41-62-41-52 0-71 34-72 86" id="by"/><g id="C"><use transform="matrix(0.04938271604938272,0,0,0.04938271604938272,0,0)" xlink:href="#bv"/><use transform="matrix(0.04938271604938272,0,0,0.04938271604938272,13.827160493827162,0)" xlink:href="#bw"/><use transform="matrix(0.04938271604938272,0,0,0.04938271604938272,18.765432098765434,0)" xlink:href="#bx"/><use transform="matrix(0.04938271604938272,0,0,0.04938271604938272,31.555555555555557,0)" xlink:href="#by"/></g><path fill="#008573" d="M115-3C79 11 28 4 28-45v-112H4v-33h27l15-45h31v45h36v33H77v99c-1 23 16 31 38 25v30" id="bz"/><path fill="#008573" d="M110-194c64 0 96 36 96 99 0 64-35 99-97 99-61 0-95-36-95-99 0-62 34-99 96-99zm-1 164c35 0 45-28 45-65 0-40-10-65-43-65-34 0-45 26-45 65 0 36 10 65 43 65" id="bA"/><path fill="#008573" d="M147 0L96-86 75-71V0H25v-261h50v150l67-79h53l-66 74L201 0h-54" id="bB"/><path fill="#008573" d="M185-48c-13 30-37 53-82 52C43 2 14-33 14-96s30-98 90-98c62 0 83 45 84 108H66c0 31 8 55 39 56 18 0 30-7 34-22zm-45-69c5-46-57-63-70-21-2 6-4 13-4 21h74" id="bC"/><path fill="#008573" d="M135-194c87-1 58 113 63 194h-50c-7-57 23-157-34-157-59 0-34 97-39 157H25l-1-190h47c2 12-1 28 3 38 12-26 28-41 61-42" id="bD"/><path fill="#008573" d="M137-138c1-29-70-34-71-4 15 46 118 7 119 86 1 83-164 76-172 9l43-7c4 19 20 25 44 25 33 8 57-30 24-41C81-84 22-81 20-136c-2-80 154-74 161-7" id="bE"/><g id="D"><use transform="matrix(0.04938271604938272,0,0,0.04938271604938272,0,0)" xlink:href="#bz"/><use transform="matrix(0.04938271604938272,0,0,0.04938271604938272,5.8765432098765435,0)" xlink:href="#bA"/><use transform="matrix(0.04938271604938272,0,0,0.04938271604938272,16.691358024691358,0)" xlink:href="#bB"/><use transform="matrix(0.04938271604938272,0,0,0.04938271604938272,26.567901234567902,0)" xlink:href="#bC"/><use transform="matrix(0.04938271604938272,0,0,0.04938271604938272,36.44444444444444,0)" xlink:href="#bD"/><use transform="matrix(0.04938271604938272,0,0,0.04938271604938272,47.25925925925926,0)" xlink:href="#bE"/></g><g id="E"><use transform="matrix(0.04938271604938272,0,0,0.04938271604938272,0,0)" xlink:href="#bc"/><use transform="matrix(0.04938271604938272,0,0,0.04938271604938272,12.790123456790125,0)" xlink:href="#aR"/><use transform="matrix(0.04938271604938272,0,0,0.04938271604938272,22.66666666666667,0)" xlink:href="#bd"/><use transform="matrix(0.04938271604938272,0,0,0.04938271604938272,28.54320987654322,0)" xlink:href="#be"/><use transform="matrix(0.04938271604938272,0,0,0.04938271604938272,39.35802469135803,0)" xlink:href="#bf"/><use transform="matrix(0.04938271604938272,0,0,0.04938271604938272,46.271604938271615,0)" xlink:href="#bg"/></g><path fill="#333" d="M169-182c-1-43-94-46-97-3 18 66 151 10 154 114 3 95-165 93-204 36-6-8-10-19-12-30l50-8c3 46 112 56 116 5-17-69-150-10-154-114-4-87 153-88 188-35 5 8 8 18 10 28" id="bF"/><path fill="#333" d="M128 0H69L1-190h53L99-40l48-150h52" id="bG"/><g id="F"><use transform="matrix(0.04938271604938272,0,0,0.04938271604938272,0,0)" xlink:href="#bF"/><use transform="matrix(0.04938271604938272,0,0,0.04938271604938272,11.851851851851853,0)" xlink:href="#bk"/><use transform="matrix(0.04938271604938272,0,0,0.04938271604938272,21.7283950617284,0)" xlink:href="#bG"/><use transform="matrix(0.04938271604938272,0,0,0.04938271604938272,31.60493827160494,0)" xlink:href="#aR"/></g><g id="G"><use transform="matrix(0.04938271604938272,0,0,0.04938271604938272,0,0)" xlink:href="#bz"/><use transform="matrix(0.04938271604938272,0,0,0.04938271604938272,5.8765432098765435,0)" xlink:href="#bA"/><use transform="matrix(0.04938271604938272,0,0,0.04938271604938272,16.691358024691358,0)" xlink:href="#bB"/><use transform="matrix(0.04938271604938272,0,0,0.04938271604938272,26.567901234567902,0)" xlink:href="#bC"/><use transform="matrix(0.04938271604938272,0,0,0.04938271604938272,36.44444444444444,0)" xlink:href="#bD"/><use transform="matrix(0.04938271604938272,0,0,0.04938271604938272,47.25925925925926,0)" xlink:href="#bE"/></g><g id="H"><use transform="matrix(0.04938271604938272,0,0,0.04938271604938272,0,0)" xlink:href="#ax"/><use transform="matrix(0.04938271604938272,0,0,0.04938271604938272,9.876543209876544,0)" xlink:href="#aD"/><use transform="matrix(0.04938271604938272,0,0,0.04938271604938272,20.69135802469136,0)" xlink:href="#aN"/></g><g id="I"><use transform="matrix(0.04938271604938272,0,0,0.04938271604938272,0,0)" xlink:href="#aJ"/><use transform="matrix(0.04938271604938272,0,0,0.04938271604938272,9.876543209876544,0)" xlink:href="#aC"/><use transform="matrix(0.04938271604938272,0,0,0.04938271604938272,19.75308641975309,0)" xlink:href="#aB"/></g><path fill="#82755b" d="M88-194c31-1 46 15 58 34l-1-101h50l1 261h-48c-2-10 0-23-3-31C134-8 116 4 84 4 32 4 16-41 15-95c0-56 19-97 73-99zm17 164c33 0 40-30 41-66 1-37-9-64-41-64s-38 30-39 65c0 43 13 65 39 65" id="bH"/><g id="J"><use transform="matrix(0.04938271604938272,0,0,0.04938271604938272,0,0)" xlink:href="#aU"/><use transform="matrix(0.04938271604938272,0,0,0.04938271604938272,9.876543209876544,0)" xlink:href="#bb"/><use transform="matrix(0.04938271604938272,0,0,0.04938271604938272,20.69135802469136,0)" xlink:href="#bH"/></g><g id="K"><use transform="matrix(0.04938271604938272,0,0,0.04938271604938272,0,0)" xlink:href="#bp"/><use transform="matrix(0.04938271604938272,0,0,0.04938271604938272,6.913580246913581,0)" xlink:href="#aW"/><use transform="matrix(0.04938271604938272,0,0,0.04938271604938272,16.790123456790127,0)" xlink:href="#bq"/><use transform="matrix(0.04938271604938272,0,0,0.04938271604938272,22.66666666666667,0)" xlink:href="#bp"/><use transform="matrix(0.04938271604938272,0,0,0.04938271604938272,29.580246913580254,0)" xlink:href="#aW"/><use transform="matrix(0.04938271604938272,0,0,0.04938271604938272,39.4567901234568,0)" xlink:href="#aX"/><use transform="matrix(0.04938271604938272,0,0,0.04938271604938272,49.33333333333334,0)" xlink:href="#br"/></g><g id="L"><use transform="matrix(0.04938271604938272,0,0,0.04938271604938272,0,0)" xlink:href="#aY"/><use transform="matrix(0.04938271604938272,0,0,0.04938271604938272,5.8765432098765435,0)" xlink:href="#aZ"/><use transform="matrix(0.04938271604938272,0,0,0.04938271604938272,16.691358024691358,0)" xlink:href="#ba"/><use transform="matrix(0.04938271604938272,0,0,0.04938271604938272,26.567901234567902,0)" xlink:href="#aW"/><use transform="matrix(0.04938271604938272,0,0,0.04938271604938272,36.44444444444444,0)" xlink:href="#bb"/><use transform="matrix(0.04938271604938272,0,0,0.04938271604938272,47.25925925925926,0)" xlink:href="#aX"/></g><g id="M"><use transform="matrix(0.04938271604938272,0,0,0.04938271604938272,0,0)" xlink:href="#az"/><use transform="matrix(0.04938271604938272,0,0,0.04938271604938272,4.938271604938272,0)" xlink:href="#aD"/></g><g id="N"><use transform="matrix(0.04938271604938272,0,0,0.04938271604938272,0,0)" xlink:href="#aG"/><use transform="matrix(0.04938271604938272,0,0,0.04938271604938272,9.876543209876544,0)" xlink:href="#aH"/><use transform="matrix(0.04938271604938272,0,0,0.04938271604938272,20.69135802469136,0)" xlink:href="#aH"/><use transform="matrix(0.04938271604938272,0,0,0.04938271604938272,31.506172839506174,0)" xlink:href="#aK"/><use transform="matrix(0.04938271604938272,0,0,0.04938271604938272,41.38271604938272,0)" xlink:href="#az"/><use transform="matrix(0.04938271604938272,0,0,0.04938271604938272,46.320987654320994,0)" xlink:href="#aC"/><use transform="matrix(0.04938271604938272,0,0,0.04938271604938272,56.19753086419754,0)" xlink:href="#aJ"/></g><path fill="#333" d="M140-251c80 0 125 45 125 126S219 4 139 4C58 4 15-44 15-125s44-126 125-126zm-1 214c52 0 73-35 73-88 0-50-21-86-72-86-52 0-73 35-73 86s22 88 72 88" id="bI"/><path fill="#333" d="M195 0l-88-114-31 24V0H24v-248h52v113l112-113h60L142-143 257 0h-62" id="bJ"/><g id="O"><use transform="matrix(0.04938271604938272,0,0,0.04938271604938272,0,0)" xlink:href="#bI"/><use transform="matrix(0.04938271604938272,0,0,0.04938271604938272,13.827160493827162,0)" xlink:href="#bJ"/></g><g id="P"><use transform="matrix(0.04938271604938272,0,0,0.04938271604938272,0,0)" xlink:href="#aP"/><use transform="matrix(0.04938271604938272,0,0,0.04938271604938272,12.790123456790125,0)" xlink:href="#aQ"/><use transform="matrix(0.04938271604938272,0,0,0.04938271604938272,23.60493827160494,0)" xlink:href="#aR"/><use transform="matrix(0.04938271604938272,0,0,0.04938271604938272,33.48148148148148,0)" xlink:href="#aS"/><use transform="matrix(0.04938271604938272,0,0,0.04938271604938272,43.358024691358025,0)" xlink:href="#aT"/></g><path fill="#333" d="M88-194c31-1 46 15 58 34l-1-101h50l1 261h-48c-2-10 0-23-3-31C134-8 116 4 84 4 32 4 16-41 15-95c0-56 19-97 73-99zm17 164c33 0 40-30 41-66 1-37-9-64-41-64s-38 30-39 65c0 43 13 65 39 65" id="bK"/><g id="Q"><use transform="matrix(0.04938271604938272,0,0,0.04938271604938272,0,0)" xlink:href="#bk"/><use transform="matrix(0.04938271604938272,0,0,0.04938271604938272,9.876543209876544,0)" xlink:href="#bg"/><use transform="matrix(0.04938271604938272,0,0,0.04938271604938272,20.69135802469136,0)" xlink:href="#bK"/></g><g id="R"><use transform="matrix(0.04938271604938272,0,0,0.04938271604938272,0,0)" xlink:href="#bf"/><use transform="matrix(0.04938271604938272,0,0,0.04938271604938272,6.913580246913581,0)" xlink:href="#aR"/><use transform="matrix(0.04938271604938272,0,0,0.04938271604938272,16.790123456790127,0)" xlink:href="#bg"/><use transform="matrix(0.04938271604938272,0,0,0.04938271604938272,27.604938271604947,0)" xlink:href="#aR"/><use transform="matrix(0.04938271604938272,0,0,0.04938271604938272,37.48148148148149,0)" xlink:href="#bu"/></g><g id="S"><use transform="matrix(0.04938271604938272,0,0,0.04938271604938272,0,0)" xlink:href="#bd"/><use transform="matrix(0.04938271604938272,0,0,0.04938271604938272,5.8765432098765435,0)" xlink:href="#bt"/><use transform="matrix(0.04938271604938272,0,0,0.04938271604938272,16.691358024691358,0)" xlink:href="#aT"/><use transform="matrix(0.04938271604938272,0,0,0.04938271604938272,26.567901234567902,0)" xlink:href="#aR"/><use transform="matrix(0.04938271604938272,0,0,0.04938271604938272,36.44444444444444,0)" xlink:href="#bg"/><use transform="matrix(0.04938271604938272,0,0,0.04938271604938272,47.25925925925926,0)" xlink:href="#bo"/></g><g id="T"><use transform="matrix(0.04938271604938272,0,0,0.04938271604938272,0,0)" xlink:href="#bs"/><use transform="matrix(0.04938271604938272,0,0,0.04938271604938272,12.790123456790125,0)" xlink:href="#be"/><use transform="matrix(0.04938271604938272,0,0,0.04938271604938272,23.60493827160494,0)" xlink:href="#bd"/><use transform="matrix(0.04938271604938272,0,0,0.04938271604938272,29.481481481481485,0)" xlink:href="#bt"/></g><g id="U"><use transform="matrix(0.04938271604938272,0,0,0.04938271604938272,0,0)" xlink:href="#bf"/><use transform="matrix(0.04938271604938272,0,0,0.04938271604938272,6.913580246913581,0)" xlink:href="#aR"/><use transform="matrix(0.04938271604938272,0,0,0.04938271604938272,16.790123456790127,0)" xlink:href="#bn"/><use transform="matrix(0.04938271604938272,0,0,0.04938271604938272,22.66666666666667,0)" xlink:href="#bf"/><use transform="matrix(0.04938271604938272,0,0,0.04938271604938272,29.580246913580254,0)" xlink:href="#aR"/><use transform="matrix(0.04938271604938272,0,0,0.04938271604938272,39.4567901234568,0)" xlink:href="#bo"/><use transform="matrix(0.04938271604938272,0,0,0.04938271604938272,49.33333333333334,0)" xlink:href="#aQ"/></g><path fill="#333" d="M67-93c0 74 22 123 53 168H70C40 30 18-18 18-93s22-123 52-168h50c-32 44-53 94-53 168" id="bL"/><g id="V"><use transform="matrix(0.04938271604938272,0,0,0.04938271604938272,0,0)" xlink:href="#bL"/><use transform="matrix(0.04938271604938272,0,0,0.04938271604938272,5.8765432098765435,0)" xlink:href="#bf"/><use transform="matrix(0.04938271604938272,0,0,0.04938271604938272,12.790123456790125,0)" xlink:href="#aR"/><use transform="matrix(0.04938271604938272,0,0,0.04938271604938272,22.666666666666668,0)" xlink:href="#aS"/><use transform="matrix(0.04938271604938272,0,0,0.04938271604938272,32.543209876543216,0)" xlink:href="#bk"/><use transform="matrix(0.04938271604938272,0,0,0.04938271604938272,42.41975308641976,0)" xlink:href="#bl"/><use transform="matrix(0.04938271604938272,0,0,0.04938271604938272,47.35802469135803,0)" xlink:href="#bl"/></g><path fill="#ba23f6" d="M25-224v-37h50v37H25zM25 0v-190h50V0H25" id="bM"/><path fill="#ba23f6" d="M135-194c87-1 58 113 63 194h-50c-7-57 23-157-34-157-59 0-34 97-39 157H25l-1-190h47c2 12-1 28 3 38 12-26 28-41 61-42" id="bN"/><path fill="#ba23f6" d="M88-194c31-1 46 15 58 34l-1-101h50l1 261h-48c-2-10 0-23-3-31C134-8 116 4 84 4 32 4 16-41 15-95c0-56 19-97 73-99zm17 164c33 0 40-30 41-66 1-37-9-64-41-64s-38 30-39 65c0 43 13 65 39 65" id="bO"/><path fill="#ba23f6" d="M185-48c-13 30-37 53-82 52C43 2 14-33 14-96s30-98 90-98c62 0 83 45 84 108H66c0 31 8 55 39 56 18 0 30-7 34-22zm-45-69c5-46-57-63-70-21-2 6-4 13-4 21h74" id="bP"/><path fill="#ba23f6" d="M144 0l-44-69L55 0H2l70-98-66-92h53l41 62 40-62h54l-67 91 71 99h-54" id="bQ"/><path fill="#ba23f6" d="M24 0v-54h51V0H24" id="bR"/><path fill="#ba23f6" d="M114-157C55-157 80-60 75 0H25v-261h50l-1 109c12-26 28-41 61-42 86-1 58 113 63 194h-50c-7-57 23-157-34-157" id="bS"/><path fill="#ba23f6" d="M115-3C79 11 28 4 28-45v-112H4v-33h27l15-45h31v45h36v33H77v99c-1 23 16 31 38 25v30" id="bT"/><path fill="#ba23f6" d="M220-157c-53 9-28 100-34 157h-49v-107c1-27-5-49-29-50C55-147 81-57 75 0H25l-1-190h47c2 12-1 28 3 38 10-53 101-56 108 0 13-22 24-43 59-42 82 1 51 116 57 194h-49v-107c-1-25-5-48-29-50" id="bU"/><path fill="#ba23f6" d="M25 0v-261h50V0H25" id="bV"/><path fill="#333" d="M102-93c0 74-22 123-52 168H0C30 29 54-18 53-93c0-74-22-123-53-168h50c30 45 52 94 52 168" id="bW"/><g id="W"><use transform="matrix(0.04938271604938272,0,0,0.04938271604938272,0,0)" xlink:href="#bM"/><use transform="matrix(0.04938271604938272,0,0,0.04938271604938272,4.938271604938272,0)" xlink:href="#bN"/><use transform="matrix(0.04938271604938272,0,0,0.04938271604938272,15.753086419753087,0)" xlink:href="#bO"/><use transform="matrix(0.04938271604938272,0,0,0.04938271604938272,26.567901234567902,0)" xlink:href="#bP"/><use transform="matrix(0.04938271604938272,0,0,0.04938271604938272,36.44444444444444,0)" xlink:href="#bQ"/><use transform="matrix(0.04938271604938272,0,0,0.04938271604938272,46.32098765432099,0)" xlink:href="#bR"/><use transform="matrix(0.04938271604938272,0,0,0.04938271604938272,51.25925925925927,0)" xlink:href="#bS"/><use transform="matrix(0.04938271604938272,0,0,0.04938271604938272,62.074074074074076,0)" xlink:href="#bT"/><use transform="matrix(0.04938271604938272,0,0,0.04938271604938272,67.95061728395062,0)" xlink:href="#bU"/><use transform="matrix(0.04938271604938272,0,0,0.04938271604938272,83.75308641975309,0)" xlink:href="#bV"/><use transform="matrix(0.04938271604938272,0,0,0.04938271604938272,88.69135802469137,0)" xlink:href="#bW"/></g></defs></g></svg>