<svg xmlns="http://www.w3.org/2000/svg" xmlns:xlink="http://www.w3.org/1999/xlink" xmlns:lucid="lucid" width="1808" height="916"><g transform="translate(872 -436)" lucid:page-tab-id="0_0"><path d="M-1000 500h2000v5000h-2000z" fill="#fff"/><path d="M-780 766a6 6 0 0 1 6-6h198a6 6 0 0 1 6 6v8a14.48 14.48 0 0 1-4.24 10.24l-1.52 1.52A14.48 14.48 0 0 1-586 790h-188a6 6 0 0 1-6-6z" fill="#fff"/><path d="M-570 760v20l-10 10h-200" stroke="#282c33" stroke-width="2" fill="none"/><path d="M-780 766a6 6 0 0 1 6-6H854a6 6 0 0 1 6 6v468a6 6 0 0 1-6 6H-774a6 6 0 0 1-6-6z" stroke="#282c33" stroke-width="2" fill="none"/><use xlink:href="#a" transform="matrix(1,0,0,1,-772,760) translate(0 19.444444444444443)"/><path d="M-629.62 680.5v10m0 10v19.97m0 10v19.98m0 10v19.98m0 10v19.98m0 10v20m0 9.98v19.98m0 10v19.98m0 10v19.98m0 10v19.98m0 10v19.98m0 10v19.98m0 10v19.97m0 10v19.98m0 10v20m0 9.98v20m0 9.98v20m0 9.98v20m0 9.98v20m0 9.98v19.98m0 10v19.98m0 10v19.98m0 10V1350m0 10V1380m0 10v19.98m0 10v19.97m0 10v19.98m0 10v19.98m0 10v20m0 9.98v20m0 9.98v20m0 9.98v20m0 9.98v20m0 9.98v19.98m0 10v19.98m0 10v19.98m0 10v19.98m0 10v19.98m0 10v19.98m0 10v19.97m0 10v19.98m0 10v19.98m0 10v20m0 9.98v20m0 9.98v20m0 9.98v20m0 9.98v19.98m0 10v19.98m0 10v19.98m0 10v19.98m0 10v19.98m0 10v19.98m0 10v19.97m0 10v19.98m0 10v19.98m0 10v19.98m0 10v20m0 9.98v20m0 9.98v19.98m0 10v19.98m0 10v19.98m0 10v19.98m0 10v19.98m0 10v10l-.06.77-.2.76-.3.72-.4.66-.5.6-.6.5-.67.42-.73.3-.76.18-.78.07h-6.8m-6.8 0H-655l-.78.06-.76.2-.73.3-.67.4-.6.5-.5.6-.42.68-.3.72-.18.76-.06.78v10.04m0 10.04v20.07m0 10.02v20.07m0 10.03v20.07m0 10.04v20.07m0 10.04v20.07m0 10.05v20.07m0 10.04v20.07m0 10.03v20.07m0 10.04v20.07m0 10.04v20.07m0 10.03v20.07m0 10.04v20.06m0 10.04v20.07m0 10.03v20.08m0 10.03v20.08m0 10.04v20.07m0 10.02V3101m0 10.03v20.07m0 10.04v20.07m0 10.04v20.08m0 10.03v20.07m0 10.04v20.07m0 10.03v20.08m0 10.03v20.07m0 10.04v20.07m0 10.04v20.06m0 10.03v20.06m0 10.04v20.07m0 10.03v20.08m0 10.03v20.08m0 10.04v20.07m0 10.03v20.07m0 10.03v20.07m0 10.04v20.07m0 10.05v20.07m0 10.03v20.07m0 10.04v20.07m0 10.04v20.07m0 10.03v20.07m0 10.04v20.07m0 10.04v20.06m0 10.03v20.06m0 10.04v20.07m0 10.04v20.08m0 10.03V3944m0 10.04v20.07m0 10.03v20.07m0 10.03v20.07m0 10.04v20.07m0 10.05v20.07m0 10.03v20.07m0 10.04v20.07m0 10.04v20.07m0 10.03v20.07m0 10.04v20.07m0 10.04v20.06m0 10.03v20.07m0 10.03v20.07m0 10.04v20.08m0 10.04v20.07m0 10.02v20.07m0 10.03v20.07m0 10.03v20.08m0 10.04V4516m0 10.05v20.07m0 10.03v20.08m0 10.03v20.07m0 10.04v20.07m0 10.04v20.07m0 10.03v20.07m0 10.04v20.06m0 10.04v20.07m0 10.03v20.07m0 10.04v20.08m0 10.04v20.07m0 10.02v20.07m0 10.03v20.07m0 10.04v20.07m0 10.04v20.07m0 10.05v20.07m0 10.04v20.07m0 10.03v20.07m0 10.04v20.07m0 10.04v20.07m0 10.03v20.07m0 10.04v20.06m0 10.04v20.07m0 10.03v20.07m0 10.04v20.08m0 10.04v20.07m0 10.02v20.08m0 10.03V5359m0 10.04v20.07m0 10.04v20.07m0 10.05v20.07m0 10.04v20.07m0 10.03v10.04M-629.62 680.5v-.5M-660 5499.5v.5M-320 622.5v9.95m0 9.95v19.9m0 9.96v19.9m0 9.95V722m0 9.96v19.9m0 9.96v19.9m0 9.95v19.9m0 9.96v19.9m0 9.95v19.9m0 9.95v19.9m0 9.96V931m0 9.94v19.9m0 9.96v19.9m0 9.95v19.9m0 9.95v19.9m0 9.96v19.9m0 9.95v19.9m0 9.97v19.9m0 9.95v19.9m0 9.95v19.9m0 9.96v19.9m0 9.95v19.9m0 9.95v19.9m0 9.96v19.9m0 9.94v19.9m0 9.96v19.9m0 9.95v19.9m0 9.95v19.9m0 9.96v19.9m0 9.95v19.9m0 9.97v19.9m0 9.95v19.9m0 9.95v19.9m0 9.96v19.9m0 9.95v19.9m0 9.96v19.9m0 9.95v19.9m0 9.94v19.9m0 9.96v19.9m0 9.95v19.9m0 9.96v19.9m0 9.96v19.9m0 9.95v19.92m0 9.95v19.9m0 9.95v19.9m0 9.96v19.9m0 9.95v19.9m0 9.95v19.9m0 9.96v19.9m0 9.95v19.9m0 9.94v19.9m0 9.96v19.9m0 9.95v19.9m0 9.96v19.9m0 9.96v19.9m0 9.95v19.92m0 9.95v19.9m0 9.95v19.9m0 9.96v19.9m0 9.95v19.9m0 9.95v19.9m0 9.96v19.9m0 9.95v19.9m0 9.95v19.9m0 9.95v19.9m0 9.95v19.9m0 9.96v19.9m0 9.96v19.9m0 9.96v19.9m0 9.95v19.9m0 9.95v19.9m0 9.96v19.9m0 9.95v19.9m0 9.96v19.9m0 9.94v19.9m0 9.95v19.9m0 9.95v19.9m0 9.95v19.9m0 9.96v19.9m0 9.95v19.9m0 9.96v19.9m0 9.96v19.9m0 9.95v19.9m0 9.96v19.9m0 9.95v19.9m0 9.95v19.9m0 9.96v19.9m0 9.94v19.9m0 9.96v19.9m0 9.95v9.95" stroke="#333" fill="none"/><path d="M-319.52 622.5h-.96v-.5h.96z" stroke="#333" stroke-width=".05" fill="#333"/><path d="M-320 3279.5v.5M42.84 622.5v10.05m0 10.05v20.1m0 10.06v20.1m0 10.05V723m0 10.06v20.1m0 10.06v20.1m0 10.05v20.1m0 10.06v20.1m0 10.05v20.1m0 10.05v20.1m0 10.06v20.1m0 10.04v20.1m0 10.05v20.1m0 10.05v20.1m0 10.05v20.1m0 10.06v20.1m0 10.05v20.1m0 10.07v20.1m0 10.05v20.1m0 10.05v20.1m0 10.06v20.1m0 10.05v20.1m0 10.05v20.1m0 10.06v20.1m0 10.04v20.1m0 10.06v20.1m0 10.05v20.1m0 10.05v20.1m0 10.06v20.1m0 10.05v20.1m0 10.07v20.1m0 10.05v20.1m0 10.05v20.1m0 10.06v20.1m0 10.05v20.1m0 10.06v20.1m0 10.05v20.1m0 10.04v20.1m0 10.06v20.1m0 10.05v20.1m0 10.06v20.1m0 10.06v20.1m0 10.05v20.12m0 10.05v20.1m0 10.05v20.1m0 10.05v20.1m0 10.06v10.05l-.02.22-.05.22-.08.2-.13.2-.15.16-.16.15-.2.12-.2.08-.22.05-.22.02-.22.02-.22.05-.2.1-.2.1-.16.15-.15.17-.12.18-.08.2-.05.22-.02.22v10.05m0 10.05v20.1m0 10.06v20.1m0 10.05v20.1m0 10.06v20.1m0 10.04v20.1m0 10.05v20.1m0 10.05v20.1m0 10.05v20.1m0 10.06v20.1m0 10.05v20.1m0 10.06v20.1m0 10.06v20.1m0 10.05v20.1m0 10.05v20.1m0 10.06v20.1m0 10.05v20.1m0 10.06v20.1m0 10.04v20.1m0 10.05v20.1m0 10.05v20.1m0 10.05v20.1m0 10.06v20.1m0 10.05v20.1m0 10.06v20.1m0 10.06v20.1m0 10.05v20.1m0 10.06v20.1m0 10.05v20.1m0 10.05v20.1m0 10.06v20.1m0 10.04v20.1m0 10.05v20.1m0 10.05v20.1m0 10.05v20.1m0 10.06v20.1m0 10.05v20.1m0 10.06v20.1m0 10.06v20.1m0 10.05v20.1m0 10.06v20.1m0 10.05v20.1m0 10.05v20.1m0 10.06v20.1m0 10.04v20.1m0 10.06v20.1m0 10.05v10.05" stroke="#333" fill="none"/><path d="M43.32 622.5h-.95v-.5h.95z" stroke="#333" stroke-width=".05" fill="#333"/><path d="M40 3399.5v.5M575.04 622.5v10.05m0 10.06v20.1m0 10.06v20.1m0 10.06v20.1m0 10.06v20.1m0 10.06v20.1m0 10.06v20.1m0 10.06v20.1m0 10.06v20.1m0 10.05v20.1m0 10.06v20.1m0 10.06v20.1m0 10.05v20.1m0 10.06v20.1m0 10.07v20.1m0 10.05v20.1m0 10.06v20.1m0 10.06v20.1m0 10.06v20.1m0 10.06v20.1m0 10.06v20.1m0 10.05v20.1m0 10.06v20.1m0 10.06v20.1m0 10.05v20.1m0 10.06v20.1m0 10.07v20.1m0 10.05v20.1m0 10.06v20.1m0 10.06v20.1m0 10.06v20.1m0 10.06v20.1m0 10.06v20.1m0 10.06v20.1m0 10.05v20.1m0 10.06v20.1m0 10.05v20.1m0 10.06v20.12m0 10.05v20.1m0 10.06v20.1m0 10.05v20.1m0 10.06v20.1m0 10.06v20.1m0 10.06v20.1m0 10.06v20.1m0 10.06v20.1m0 10.05v20.1m0 10.06v20.1m0 10.05v20.1m0 10.06v20.12m0 10.05v20.1m0 10.06v20.1m0 10.06v20.1m0 10.04v20.1m0 10.06v20.1m0 10.06v20.1m0 10.06v20.1m0 10.06v20.1m0 10.06v20.1m0 10.06v20.1m0 10.05v20.1m0 10.06v20.12m0 10.05v20.1m0 10.06v10.05l-.1 1.18-.27 1.14-.45 1.1-.62 1-.76.9-.9.76-1 .62-1.1.45-1.14.28-1.18.1-1.18.1-1.14.27-1.1.45-1 .62-.9.76-.76.9-.62 1-.45 1.1-.28 1.14-.1 1.18v10m0 10.02v20.02m0 10.02v20.02m0 10v20.03m0 10v20.04m0 10v20.03m0 10v20.04m0 10v20.03m0 10v20.03m0 10v20.04m0 10v20.03m0 10v20.04m0 10.02v20.02m0 10v20.03m0 10.02v20m0 10.02v20.02m0 10v20.04m0 10v20.03m0 10.02v20.03m0 10v20.03m0 10v20.03m0 10.03v20.02m0 10v20.03m0 10v20.04m0 10v20.03m0 10v20.03m0 10.02v20.02m0 10v20.03m0 10v20.04m0 10v20.02m0 10v20.03m0 10.02v20.02m0 10v20.02m0 10.02v20.02m0 10v20.03m0 10v20.03m0 10v20.03m0 10v20.03m0 10v20.03m0 10v20.03m0 10v20.04m0 10v20.03m0 10v20.04m0 10V3839m0 10v20.03m0 10v20.04m0 10v20.03m0 10v20.04m0 10v20.03m0 10v20.03m0 10.02v20.02m0 10v20.03m0 10v20.04m0 10.02v20.02m0 10v20.03m0 10.02v20m0 10.02v20.02m0 10v20.04m0 10v10.02" stroke="#333" fill="none"/><path d="M575.5 622.5h-.94v-.5h.95z" stroke="#333" stroke-width=".05" fill="#333"/><path d="M560 4279.5v.5" stroke="#333" fill="none"/><path d="M-415.04 508a8 8 0 0 1 8-8h174.08a8 8 0 0 1 8 8v106a8 8 0 0 1-8 8h-174.08a8 8 0 0 1-8-8z" stroke="#000" stroke-opacity="0" fill="#6db1ff"/><use xlink:href="#b" transform="matrix(1,0,0,1,-407.03761906492343,508) translate(35.425925925925924 56.55555555555555)"/><use xlink:href="#c" transform="matrix(1,0,0,1,-407.03761906492343,508) translate(76.51234567901236 56.55555555555555)"/><path d="M-52.2 508a8 8 0 0 1 8-8h174.08a8 8 0 0 1 8 8v106a8 8 0 0 1-8 8H-44.2a8 8 0 0 1-8-8z" stroke="#000" stroke-opacity="0" fill="#6db1ff"/><use xlink:href="#d" transform="matrix(1,0,0,1,-44.19607485517028,508) translate(68.24074074074073 56.55555555555555)"/><path d="M480 508a8 8 0 0 1 8-8h174.08a8 8 0 0 1 8 8v106a8 8 0 0 1-8 8H488a8 8 0 0 1-8-8z" stroke="#000" stroke-opacity="0" fill="#6db1ff"/><use xlink:href="#e" transform="matrix(1,0,0,1,488,508) translate(65.32716049382717 56.55555555555555)"/><path d="M-600.25 519.75c0 10.9-8.84 19.75-19.75 19.75-10.9 0-19.75-8.84-19.75-19.75 0-10.9 8.84-19.75 19.75-19.75 10.9 0 19.75 8.84 19.75 19.75z" stroke="#333" fill="#fff"/><path d="M-620 539.5v47.3a27.6 27.6 0 0 0 4.28 14.76L-580 658m-40-63.2l-40 63.2m0-98.75h80" stroke="#333" fill="none"/><path d="M-660 508a8 8 0 0 1 8-8h64a8 8 0 0 1 8 8v164a8 8 0 0 1-8 8h-64a8 8 0 0 1-8-8z" fill="none"/><use xlink:href="#f" transform="matrix(1,0,0,1,-740,658) translate(101.28395061728395 14.555555555555555)"/><path d="M-629.12 840h275.82M-629.1 840h-.52" stroke="#3a414a" fill="none"/><path d="M-338.54 840l-14.26 4.63v-9.26z" stroke="#3a414a" fill="#3a414a"/><use xlink:href="#g" transform="matrix(1,0,0,1,-543.320040536601,814.6666666666667) translate(0 14.222222222222223)"/><use xlink:href="#h" transform="matrix(1,0,0,1,-543.320040536601,814.6666666666667) translate(37.48148148148149 14.222222222222223)"/><use xlink:href="#i" transform="matrix(1,0,0,1,-543.320040536601,814.6666666666667) translate(66.0246913580247 14.222222222222223)"/><path d="M-336.92 828a8 8 0 0 1 8-8h24a8 8 0 0 1 8 8v344a8 8 0 0 1-8 8h-24a8 8 0 0 1-8-8zM22.84 828a8 8 0 0 1 8-8h24a8 8 0 0 1 8 8v84a8 8 0 0 1-8 8h-24a8 8 0 0 1-8-8zM555.04 968a8 8 0 0 1 8-8h24a8 8 0 0 1 8 8v204a8 8 0 0 1-8 8h-24a8 8 0 0 1-8-8z" stroke="#f2f2f2" fill="#ced4db"/><path d="M-295.92 842.34H5.96" stroke="#3a414a" fill="none"/><path d="M-295.9 842.8h-.52v-.94h.5z" stroke="#3a414a" stroke-width=".05" fill="#3a414a"/><path d="M20.72 842.34l-14.26 4.63v-9.27z" stroke="#3a414a" fill="#3a414a"/><use xlink:href="#j" transform="matrix(1,0,0,1,-206.44613328057187,817.001770264596) translate(0 14.222222222222223)"/><use xlink:href="#k" transform="matrix(1,0,0,1,-206.44613328057187,817.001770264596) translate(37.48148148148149 14.222222222222223)"/><path d="M63.84 843.16h33.5a6 6 0 0 1 6 6v47.68a6 6 0 0 1-6 6H79.72" stroke="#3a414a" fill="none"/><path d="M63.85 843.64h-.5v-.95h.5z" stroke="#3a414a" stroke-width=".05" fill="#3a414a"/><path d="M64.96 902.84l14.27-4.63v9.28z" stroke="#3a414a" fill="#3a414a"/><use xlink:href="#l" transform="matrix(1,0,0,1,111.34153330842412,862.3359193045536) translate(0 14.222222222222223)"/><use xlink:href="#m" transform="matrix(1,0,0,1,111.34153330842412,862.3359193045536) translate(49.33333333333334 14.222222222222223)"/><use xlink:href="#n" transform="matrix(1,0,0,1,111.34153330842412,862.3359193045536) translate(113.53086419753089 14.222222222222223)"/><use xlink:href="#o" transform="matrix(1,0,0,1,111.34153330842412,862.3359193045536) translate(149.97530864197535 14.222222222222223)"/><use xlink:href="#p" transform="matrix(1,0,0,1,111.34153330842412,862.3359193045536) translate(215.06172839506178 14.222222222222223)"/><path d="M21.84 901.78h-301.88" stroke="#3a414a" fill="none"/><path d="M22.34 902.25h-.5v-.95h.5z" stroke="#3a414a" stroke-width=".05" fill="#3a414a"/><path d="M-294.8 901.78l14.27-4.64v9.27z" stroke="#3a414a" fill="#3a414a"/><use xlink:href="#q" transform="matrix(1,0,0,1,-242.89053300848383,905.7770589713465) translate(0 14.222222222222223)"/><use xlink:href="#r" transform="matrix(1,0,0,1,-242.89053300848383,905.7770589713465) translate(62.024691358024704 14.222222222222223)"/><use xlink:href="#s" transform="matrix(1,0,0,1,-242.89053300848383,905.7770589713465) translate(111.30864197530866 14.222222222222223)"/><use xlink:href="#t" transform="matrix(1,0,0,1,-242.89053300848383,905.7770589713465) translate(170.32098765432102 14.222222222222223)"/><path d="M-295.92 978.5H538.14" stroke="#3a414a" fill="none"/><path d="M-295.9 978.98h-.52v-.95h.5z" stroke="#3a414a" stroke-width=".05" fill="#3a414a"/><path d="M552.92 978.5l-14.27 4.64v-9.27z" stroke="#3a414a" fill="#3a414a"/><use xlink:href="#j" transform="matrix(1,0,0,1,-66.96536592024327,953.1756954385536) translate(0 14.222222222222223)"/><use xlink:href="#u" transform="matrix(1,0,0,1,-66.96536592024327,953.1756954385536) translate(37.48148148148149 14.222222222222223)"/><use xlink:href="#v" transform="matrix(1,0,0,1,-66.96536592024327,953.1756954385536) translate(96.49382716049384 14.222222222222223)"/><use xlink:href="#w" transform="matrix(1,0,0,1,-66.96536592024327,953.1756954385536) translate(142.81481481481484 14.222222222222223)"/><use xlink:href="#x" transform="matrix(1,0,0,1,-66.96536592024327,953.1756954385536) translate(183.2098765432099 14.222222222222223)"/><path d="M554.04 1039.3h-834.08" stroke="#3a414a" fill="none"/><path d="M554.54 1039.78h-.5v-.95h.5z" stroke="#3a414a" stroke-width=".05" fill="#3a414a"/><path d="M-294.8 1039.3l14.27-4.63v9.27z" stroke="#3a414a" fill="#3a414a"/><use xlink:href="#q" transform="matrix(1,0,0,1,47.849472177647854,1013.972999614875) translate(0 14.222222222222223)"/><use xlink:href="#u" transform="matrix(1,0,0,1,47.849472177647854,1013.972999614875) translate(62.024691358024704 14.222222222222223)"/><use xlink:href="#t" transform="matrix(1,0,0,1,47.849472177647854,1013.972999614875) translate(121.03703703703705 14.222222222222223)"/><path d="M-629.12 1100.47h275.32M-629.1 1100.47h-.52" stroke="#3a414a" fill="none"/><path d="M-339.04 1100.47l-14.26 4.64v-9.26z" stroke="#3a414a" fill="#3a414a"/><g><use xlink:href="#y" transform="matrix(1,0,0,1,-547.5208337981394,1075.1374890668858) translate(0 14.222222222222223)"/><use xlink:href="#z" transform="matrix(1,0,0,1,-547.5208337981394,1075.1374890668858) translate(47.35802469135803 14.222222222222223)"/><use xlink:href="#i" transform="matrix(1,0,0,1,-547.5208337981394,1075.1374890668858) translate(73.92592592592594 14.222222222222223)"/></g><path d="M-295.92 1100.02h834.08" stroke="#3a414a" fill="none"/><path d="M-295.9 1100.5h-.52v-.96h.5z" stroke="#3a414a" stroke-width=".05" fill="#3a414a"/><path d="M552.92 1100.02l-14.27 4.63v-9.27z" stroke="#3a414a" fill="#3a414a"/><g><use xlink:href="#j" transform="matrix(1,0,0,1,69.00988818653116,1074.6841110633184) translate(0 14.222222222222223)"/><use xlink:href="#A" transform="matrix(1,0,0,1,69.00988818653116,1074.6841110633184) translate(37.48148148148149 14.222222222222223)"/><use xlink:href="#B" transform="matrix(1,0,0,1,69.00988818653116,1074.6841110633184) translate(66.0246913580247 14.222222222222223)"/></g><path d="M596.04 1100h33.5a6 6 0 0 1 6 6v51.03a6 6 0 0 1-6 6h-17.62" stroke="#3a414a" fill="none"/><path d="M596.05 1100.47h-.5v-.94h.5z" stroke="#3a414a" stroke-width=".05" fill="#3a414a"/><path d="M597.16 1163.03l14.26-4.63v9.27z" stroke="#3a414a" fill="#3a414a"/><g><use xlink:href="#C" transform="matrix(1,0,0,1,643.5376146693776,1120.8498719261995) translate(0 14.222222222222223)"/><use xlink:href="#D" transform="matrix(1,0,0,1,643.5376146693776,1120.8498719261995) translate(49.33333333333334 14.222222222222223)"/><use xlink:href="#E" transform="matrix(1,0,0,1,643.5376146693776,1120.8498719261995) translate(120.3456790123457 14.222222222222223)"/></g><path d="M554.04 1164.4h-834.08" stroke="#3a414a" fill="none"/><path d="M554.54 1164.88h-.5v-.95h.5z" stroke="#3a414a" stroke-width=".05" fill="#3a414a"/><path d="M-294.8 1164.4l14.27-4.63v9.27z" stroke="#3a414a" fill="#3a414a"/><g><use xlink:href="#F" transform="matrix(1,0,0,1,-24.125785364321786,1168.403007703167) translate(0 14.222222222222223)"/><use xlink:href="#G" transform="matrix(1,0,0,1,-24.125785364321786,1168.403007703167) translate(75.90123456790124 14.222222222222223)"/><use xlink:href="#x" transform="matrix(1,0,0,1,-24.125785364321786,1168.403007703167) translate(97.53086419753087 14.222222222222223)"/></g><defs><path fill="#3a414a" d="M30 0v-248h33v221h125V0H30" id="H"/><path fill="#3a414a" d="M100-194c62-1 85 37 85 99 1 63-27 99-86 99S16-35 15-95c0-66 28-99 85-99zM99-20c44 1 53-31 53-75 0-43-8-75-51-75s-53 32-53 75 10 74 51 75" id="I"/><path fill="#3a414a" d="M177-190C167-65 218 103 67 71c-23-6-38-20-44-43l32-5c15 47 100 32 89-28v-30C133-14 115 1 83 1 29 1 15-40 15-95c0-56 16-97 71-98 29-1 48 16 59 35 1-10 0-23 2-32h30zM94-22c36 0 50-32 50-73 0-42-14-75-50-75-39 0-46 34-46 75s6 73 46 73" id="J"/><path fill="#3a414a" d="M84 4C-5 8 30-112 23-190h32v120c0 31 7 50 39 49 72-2 45-101 50-169h31l1 190h-30c-1-10 1-25-2-33-11 22-28 36-60 37" id="K"/><path fill="#3a414a" d="M59-47c-2 24 18 29 38 22v24C64 9 27 4 27-40v-127H5v-23h24l9-43h21v43h35v23H59v120" id="L"/><g id="a"><use transform="matrix(0.06172839506172839,0,0,0.06172839506172839,0,0)" xlink:href="#H"/><use transform="matrix(0.06172839506172839,0,0,0.06172839506172839,12.345679012345679,0)" xlink:href="#I"/><use transform="matrix(0.06172839506172839,0,0,0.06172839506172839,24.691358024691358,0)" xlink:href="#J"/><use transform="matrix(0.06172839506172839,0,0,0.06172839506172839,37.03703703703704,0)" xlink:href="#I"/><use transform="matrix(0.06172839506172839,0,0,0.06172839506172839,49.382716049382715,0)" xlink:href="#K"/><use transform="matrix(0.06172839506172839,0,0,0.06172839506172839,61.72839506172839,0)" xlink:href="#L"/></g><path fill="#333" d="M266 0h-40l-56-210L115 0H75L2-248h35L96-30l15-64 43-154h32l59 218 59-218h35" id="M"/><path fill="#333" d="M100-194c63 0 86 42 84 106H49c0 40 14 67 53 68 26 1 43-12 49-29l28 8c-11 28-37 45-77 45C44 4 14-33 15-96c1-61 26-98 85-98zm52 81c6-60-76-77-97-28-3 7-6 17-6 28h103" id="N"/><path fill="#333" d="M115-194c53 0 69 39 70 98 0 66-23 100-70 100C84 3 66-7 56-30L54 0H23l1-261h32v101c10-23 28-34 59-34zm-8 174c40 0 45-34 45-75 0-40-5-75-45-74-42 0-51 32-51 76 0 43 10 73 51 73" id="O"/><g id="b"><use transform="matrix(0.04938271604938272,0,0,0.04938271604938272,0,0)" xlink:href="#M"/><use transform="matrix(0.04938271604938272,0,0,0.04938271604938272,16.39506172839506,0)" xlink:href="#N"/><use transform="matrix(0.04938271604938272,0,0,0.04938271604938272,26.271604938271608,0)" xlink:href="#O"/><path fill="#333" d="M-.9 1.23h42.87v1.3H-.9z"/></g><path fill="#333" d="M114-163C36-179 61-72 57 0H25l-1-190h30c1 12-1 29 2 39 6-27 23-49 58-41v29" id="P"/><path fill="#333" d="M100-194c62-1 85 37 85 99 1 63-27 99-86 99S16-35 15-95c0-66 28-99 85-99zM99-20c44 1 53-31 53-75 0-43-8-75-51-75s-53 32-53 75 10 74 51 75" id="Q"/><path fill="#333" d="M206 0h-36l-40-164L89 0H53L-1-190h32L70-26l43-164h34l41 164 42-164h31" id="R"/><path fill="#333" d="M135-143c-3-34-86-38-87 0 15 53 115 12 119 90S17 21 10-45l28-5c4 36 97 45 98 0-10-56-113-15-118-90-4-57 82-63 122-42 12 7 21 19 24 35" id="S"/><g id="c"><use transform="matrix(0.04938271604938272,0,0,0.04938271604938272,0,0)" xlink:href="#O"/><use transform="matrix(0.04938271604938272,0,0,0.04938271604938272,9.876543209876544,0)" xlink:href="#P"/><use transform="matrix(0.04938271604938272,0,0,0.04938271604938272,15.753086419753087,0)" xlink:href="#Q"/><use transform="matrix(0.04938271604938272,0,0,0.04938271604938272,25.629629629629633,0)" xlink:href="#R"/><use transform="matrix(0.04938271604938272,0,0,0.04938271604938272,38.41975308641976,0)" xlink:href="#S"/><use transform="matrix(0.04938271604938272,0,0,0.04938271604938272,47.308641975308646,0)" xlink:href="#N"/><use transform="matrix(0.04938271604938272,0,0,0.04938271604938272,57.18518518518519,0)" xlink:href="#P"/><path fill="#333" d="M-.9 1.23h64.85v1.3H-.9z"/></g><path fill="#333" d="M30 0v-248h33v221h125V0H30" id="T"/><path fill="#333" d="M141-36C126-15 110 5 73 4 37 3 15-17 15-53c-1-64 63-63 125-63 3-35-9-54-41-54-24 1-41 7-42 31l-33-3c5-37 33-52 76-52 45 0 72 20 72 64v82c-1 20 7 32 28 27v20c-31 9-61-2-59-35zM48-53c0 20 12 33 32 33 41-3 63-29 60-74-43 2-92-5-92 41" id="U"/><path fill="#333" d="M108 0H70L1-190h34L89-25l56-165h34" id="V"/><g id="d"><use transform="matrix(0.04938271604938272,0,0,0.04938271604938272,0,0)" xlink:href="#T"/><use transform="matrix(0.04938271604938272,0,0,0.04938271604938272,9.876543209876544,0)" xlink:href="#N"/><use transform="matrix(0.04938271604938272,0,0,0.04938271604938272,19.75308641975309,0)" xlink:href="#U"/><use transform="matrix(0.04938271604938272,0,0,0.04938271604938272,29.629629629629633,0)" xlink:href="#V"/><path fill="#333" d="M-.9 1.23h40.3v1.3H-.9z"/></g><path fill="#333" d="M140-251c81 0 123 46 123 126C263-46 219 4 140 4 59 4 17-45 17-125s42-126 123-126zm0 227c63 0 89-41 89-101s-29-99-89-99c-61 0-89 39-89 99S79-25 140-24" id="W"/><path fill="#333" d="M33 0v-248h34V0H33" id="X"/><path fill="#333" d="M30-248c118-7 216 8 213 122C240-48 200 0 122 0H30v-248zM63-27c89 8 146-16 146-99s-60-101-146-95v194" id="Y"/><path fill="#333" d="M212-179c-10-28-35-45-73-45-59 0-87 40-87 99 0 60 29 101 89 101 43 0 62-24 78-52l27 14C228-24 195 4 139 4 59 4 22-46 18-125c-6-104 99-153 187-111 19 9 31 26 39 46" id="Z"/><g id="e"><use transform="matrix(0.04938271604938272,0,0,0.04938271604938272,0,0)" xlink:href="#W"/><use transform="matrix(0.04938271604938272,0,0,0.04938271604938272,13.827160493827162,0)" xlink:href="#X"/><use transform="matrix(0.04938271604938272,0,0,0.04938271604938272,18.765432098765434,0)" xlink:href="#Y"/><use transform="matrix(0.04938271604938272,0,0,0.04938271604938272,31.555555555555557,0)" xlink:href="#Z"/><path fill="#333" d="M-.9 1.23h46.13v1.3H-.9z"/></g><path fill="#3a414a" d="M232-93c-1 65-40 97-104 97C67 4 28-28 28-90v-158h33c8 89-33 224 67 224 102 0 64-133 71-224h33v155" id="aa"/><path fill="#3a414a" d="M135-143c-3-34-86-38-87 0 15 53 115 12 119 90S17 21 10-45l28-5c4 36 97 45 98 0-10-56-113-15-118-90-4-57 82-63 122-42 12 7 21 19 24 35" id="ab"/><path fill="#3a414a" d="M100-194c63 0 86 42 84 106H49c0 40 14 67 53 68 26 1 43-12 49-29l28 8c-11 28-37 45-77 45C44 4 14-33 15-96c1-61 26-98 85-98zm52 81c6-60-76-77-97-28-3 7-6 17-6 28h103" id="ac"/><path fill="#3a414a" d="M114-163C36-179 61-72 57 0H25l-1-190h30c1 12-1 29 2 39 6-27 23-49 58-41v29" id="ad"/><g id="f"><use transform="matrix(0.04938271604938272,0,0,0.04938271604938272,0,0)" xlink:href="#aa"/><use transform="matrix(0.04938271604938272,0,0,0.04938271604938272,12.790123456790125,0)" xlink:href="#ab"/><use transform="matrix(0.04938271604938272,0,0,0.04938271604938272,21.679012345679013,0)" xlink:href="#ac"/><use transform="matrix(0.04938271604938272,0,0,0.04938271604938272,31.555555555555557,0)" xlink:href="#ad"/></g><path fill="#3a414a" d="M199 0l-22-63H83L61 0H9l90-248h61L250 0h-51zm-33-102l-36-108c-10 38-24 72-36 108h72" id="ae"/><path fill="#3a414a" d="M137-138c1-29-70-34-71-4 15 46 118 7 119 86 1 83-164 76-172 9l43-7c4 19 20 25 44 25 33 8 57-30 24-41C81-84 22-81 20-136c-2-80 154-74 161-7" id="af"/><path fill="#3a414a" d="M147 0L96-86 75-71V0H25v-261h50v150l67-79h53l-66 74L201 0h-54" id="ag"/><g id="g"><use transform="matrix(0.04938271604938272,0,0,0.04938271604938272,0,0)" xlink:href="#ae"/><use transform="matrix(0.04938271604938272,0,0,0.04938271604938272,12.790123456790125,0)" xlink:href="#af"/><use transform="matrix(0.04938271604938272,0,0,0.04938271604938272,22.66666666666667,0)" xlink:href="#ag"/></g><path fill="#3a414a" d="M121-226c-27-7-43 5-38 36h38v33H83V0H34v-157H6v-33h28c-9-59 32-81 87-68v32" id="ah"/><path fill="#3a414a" d="M110-194c64 0 96 36 96 99 0 64-35 99-97 99-61 0-95-36-95-99 0-62 34-99 96-99zm-1 164c35 0 45-28 45-65 0-40-10-65-43-65-34 0-45 26-45 65 0 36 10 65 43 65" id="ai"/><path fill="#3a414a" d="M135-150c-39-12-60 13-60 57V0H25l-1-190h47c2 13-1 29 3 40 6-28 27-53 61-41v41" id="aj"/><g id="h"><use transform="matrix(0.04938271604938272,0,0,0.04938271604938272,0,0)" xlink:href="#ah"/><use transform="matrix(0.04938271604938272,0,0,0.04938271604938272,5.8765432098765435,0)" xlink:href="#ai"/><use transform="matrix(0.04938271604938272,0,0,0.04938271604938272,16.691358024691358,0)" xlink:href="#aj"/></g><path fill="#3a414a" d="M25 0v-261h50V0H25" id="ak"/><path fill="#3a414a" d="M195-6C206 82 75 100 31 46c-4-6-6-13-8-21l49-6c3 16 16 24 34 25 40 0 42-37 40-79-11 22-30 35-61 35-53 0-70-43-70-97 0-56 18-96 73-97 30 0 46 14 59 34l2-30h47zm-90-29c32 0 41-27 41-63 0-35-9-62-40-62-32 0-39 29-40 63 0 36 9 62 39 62" id="al"/><path fill="#3a414a" d="M85 4C-2 5 27-109 22-190h50c7 57-23 150 33 157 60-5 35-97 40-157h50l1 190h-47c-2-12 1-28-3-38-12 25-28 42-61 42" id="am"/><path fill="#3a414a" d="M115-3C79 11 28 4 28-45v-112H4v-33h27l15-45h31v45h36v33H77v99c-1 23 16 31 38 25v30" id="an"/><g id="i"><use transform="matrix(0.04938271604938272,0,0,0.04938271604938272,0,0)" xlink:href="#ak"/><use transform="matrix(0.04938271604938272,0,0,0.04938271604938272,4.938271604938272,0)" xlink:href="#ai"/><use transform="matrix(0.04938271604938272,0,0,0.04938271604938272,15.753086419753087,0)" xlink:href="#al"/><use transform="matrix(0.04938271604938272,0,0,0.04938271604938272,26.567901234567902,0)" xlink:href="#ai"/><use transform="matrix(0.04938271604938272,0,0,0.04938271604938272,37.382716049382715,0)" xlink:href="#am"/><use transform="matrix(0.04938271604938272,0,0,0.04938271604938272,48.19753086419753,0)" xlink:href="#an"/></g><path fill="#333" d="M67-125c0 53 21 87 73 88 37 1 54-22 65-47l45 17C233-25 199 4 140 4 58 4 20-42 15-125 8-235 124-281 211-232c18 10 29 29 36 50l-46 12c-8-25-30-41-62-41-52 0-71 34-72 86" id="ao"/><path fill="#333" d="M133-34C117-15 103 5 69 4 32 3 11-16 11-54c-1-60 55-63 116-61 1-26-3-47-28-47-18 1-26 9-28 27l-52-2c7-38 36-58 82-57s74 22 75 68l1 82c-1 14 12 18 25 15v27c-30 8-71 5-69-32zm-48 3c29 0 43-24 42-57-32 0-66-3-65 30 0 17 8 27 23 27" id="ap"/><path fill="#333" d="M25 0v-261h50V0H25" id="aq"/><g id="j"><use transform="matrix(0.04938271604938272,0,0,0.04938271604938272,0,0)" xlink:href="#ao"/><use transform="matrix(0.04938271604938272,0,0,0.04938271604938272,12.790123456790125,0)" xlink:href="#ap"/><use transform="matrix(0.04938271604938272,0,0,0.04938271604938272,22.66666666666667,0)" xlink:href="#aq"/><use transform="matrix(0.04938271604938272,0,0,0.04938271604938272,27.604938271604947,0)" xlink:href="#aq"/></g><path fill="#333" d="M4 7l51-268h42L46 7H4" id="ar"/><path fill="#333" d="M85 4C-2 5 27-109 22-190h50c7 57-23 150 33 157 60-5 35-97 40-157h50l1 190h-47c-2-12 1-28-3-38-12 25-28 42-61 42" id="as"/><path fill="#333" d="M115-3C79 11 28 4 28-45v-112H4v-33h27l15-45h31v45h36v33H77v99c-1 23 16 31 38 25v30" id="at"/><path fill="#333" d="M114-157C55-157 80-60 75 0H25v-261h50l-1 109c12-26 28-41 61-42 86-1 58 113 63 194h-50c-7-57 23-157-34-157" id="au"/><path fill="#333" d="M110-194c64 0 96 36 96 99 0 64-35 99-97 99-61 0-95-36-95-99 0-62 34-99 96-99zm-1 164c35 0 45-28 45-65 0-40-10-65-43-65-34 0-45 26-45 65 0 36 10 65 43 65" id="av"/><path fill="#333" d="M195-6C206 82 75 100 31 46c-4-6-6-13-8-21l49-6c3 16 16 24 34 25 40 0 42-37 40-79-11 22-30 35-61 35-53 0-70-43-70-97 0-56 18-96 73-97 30 0 46 14 59 34l2-30h47zm-90-29c32 0 41-27 41-63 0-35-9-62-40-62-32 0-39 29-40 63 0 36 9 62 39 62" id="aw"/><g id="k"><use transform="matrix(0.04938271604938272,0,0,0.04938271604938272,0,0)" xlink:href="#ar"/><use transform="matrix(0.04938271604938272,0,0,0.04938271604938272,4.938271604938272,0)" xlink:href="#ap"/><use transform="matrix(0.04938271604938272,0,0,0.04938271604938272,14.814814814814817,0)" xlink:href="#as"/><use transform="matrix(0.04938271604938272,0,0,0.04938271604938272,25.629629629629633,0)" xlink:href="#at"/><use transform="matrix(0.04938271604938272,0,0,0.04938271604938272,31.506172839506174,0)" xlink:href="#au"/><use transform="matrix(0.04938271604938272,0,0,0.04938271604938272,42.320987654320994,0)" xlink:href="#ar"/><use transform="matrix(0.04938271604938272,0,0,0.04938271604938272,47.25925925925927,0)" xlink:href="#aq"/><use transform="matrix(0.04938271604938272,0,0,0.04938271604938272,52.19753086419754,0)" xlink:href="#av"/><use transform="matrix(0.04938271604938272,0,0,0.04938271604938272,63.01234567901235,0)" xlink:href="#aw"/><use transform="matrix(0.04938271604938272,0,0,0.04938271604938272,73.82716049382717,0)" xlink:href="#av"/><use transform="matrix(0.04938271604938272,0,0,0.04938271604938272,84.64197530864197,0)" xlink:href="#as"/><use transform="matrix(0.04938271604938272,0,0,0.04938271604938272,95.45679012345678,0)" xlink:href="#at"/></g><path fill="#333" d="M185-48c-13 30-37 53-82 52C43 2 14-33 14-96s30-98 90-98c62 0 83 45 84 108H66c0 31 8 55 39 56 18 0 30-7 34-22zm-45-69c5-46-57-63-70-21-2 6-4 13-4 21h74" id="ax"/><path fill="#333" d="M135-150c-39-12-60 13-60 57V0H25l-1-190h47c2 13-1 29 3 40 6-28 27-53 61-41v41" id="ay"/><g id="l"><use transform="matrix(0.04938271604938272,0,0,0.04938271604938272,0,0)" xlink:href="#ao"/><use transform="matrix(0.04938271604938272,0,0,0.04938271604938272,12.790123456790125,0)" xlink:href="#aq"/><use transform="matrix(0.04938271604938272,0,0,0.04938271604938272,17.7283950617284,0)" xlink:href="#ax"/><use transform="matrix(0.04938271604938272,0,0,0.04938271604938272,27.604938271604947,0)" xlink:href="#ap"/><use transform="matrix(0.04938271604938272,0,0,0.04938271604938272,37.48148148148149,0)" xlink:href="#ay"/></g><path fill="#82755b" d="M133-34C117-15 103 5 69 4 32 3 11-16 11-54c-1-60 55-63 116-61 1-26-3-47-28-47-18 1-26 9-28 27l-52-2c7-38 36-58 82-57s74 22 75 68l1 82c-1 14 12 18 25 15v27c-30 8-71 5-69-32zm-48 3c29 0 43-24 42-57-32 0-66-3-65 30 0 17 8 27 23 27" id="az"/><path fill="#82755b" d="M190-63c-7 42-38 67-86 67-59 0-84-38-90-98-12-110 154-137 174-36l-49 2c-2-19-15-32-35-32-30 0-35 28-38 64-6 74 65 87 74 30" id="aA"/><path fill="#82755b" d="M185-48c-13 30-37 53-82 52C43 2 14-33 14-96s30-98 90-98c62 0 83 45 84 108H66c0 31 8 55 39 56 18 0 30-7 34-22zm-45-69c5-46-57-63-70-21-2 6-4 13-4 21h74" id="aB"/><path fill="#82755b" d="M137-138c1-29-70-34-71-4 15 46 118 7 119 86 1 83-164 76-172 9l43-7c4 19 20 25 44 25 33 8 57-30 24-41C81-84 22-81 20-136c-2-80 154-74 161-7" id="aC"/><g id="m"><use transform="matrix(0.04938271604938272,0,0,0.04938271604938272,0,0)" xlink:href="#az"/><use transform="matrix(0.04938271604938272,0,0,0.04938271604938272,9.876543209876544,0)" xlink:href="#aA"/><use transform="matrix(0.04938271604938272,0,0,0.04938271604938272,19.75308641975309,0)" xlink:href="#aA"/><use transform="matrix(0.04938271604938272,0,0,0.04938271604938272,29.629629629629633,0)" xlink:href="#aB"/><use transform="matrix(0.04938271604938272,0,0,0.04938271604938272,39.50617283950618,0)" xlink:href="#aC"/><use transform="matrix(0.04938271604938272,0,0,0.04938271604938272,49.38271604938272,0)" xlink:href="#aC"/></g><path fill="#82755b" d="M135-194c87-1 58 113 63 194h-50c-7-57 23-157-34-157-59 0-34 97-39 157H25l-1-190h47c2 12-1 28 3 38 12-26 28-41 61-42" id="aD"/><path fill="#82755b" d="M88-194c31-1 46 15 58 34l-1-101h50l1 261h-48c-2-10 0-23-3-31C134-8 116 4 84 4 32 4 16-41 15-95c0-56 19-97 73-99zm17 164c33 0 40-30 41-66 1-37-9-64-41-64s-38 30-39 65c0 43 13 65 39 65" id="aE"/><g id="n"><use transform="matrix(0.04938271604938272,0,0,0.04938271604938272,0,0)" xlink:href="#az"/><use transform="matrix(0.04938271604938272,0,0,0.04938271604938272,9.876543209876544,0)" xlink:href="#aD"/><use transform="matrix(0.04938271604938272,0,0,0.04938271604938272,20.69135802469136,0)" xlink:href="#aE"/></g><path fill="#82755b" d="M135-150c-39-12-60 13-60 57V0H25l-1-190h47c2 13-1 29 3 40 6-28 27-53 61-41v41" id="aF"/><path fill="#82755b" d="M121-226c-27-7-43 5-38 36h38v33H83V0H34v-157H6v-33h28c-9-59 32-81 87-68v32" id="aG"/><path fill="#82755b" d="M114-157C55-157 80-60 75 0H25v-261h50l-1 109c12-26 28-41 61-42 86-1 58 113 63 194h-50c-7-57 23-157-34-157" id="aH"/><g id="o"><use transform="matrix(0.04938271604938272,0,0,0.04938271604938272,0,0)" xlink:href="#aF"/><use transform="matrix(0.04938271604938272,0,0,0.04938271604938272,6.913580246913581,0)" xlink:href="#aB"/><use transform="matrix(0.04938271604938272,0,0,0.04938271604938272,16.790123456790127,0)" xlink:href="#aG"/><use transform="matrix(0.04938271604938272,0,0,0.04938271604938272,22.66666666666667,0)" xlink:href="#aF"/><use transform="matrix(0.04938271604938272,0,0,0.04938271604938272,29.580246913580254,0)" xlink:href="#aB"/><use transform="matrix(0.04938271604938272,0,0,0.04938271604938272,39.4567901234568,0)" xlink:href="#aC"/><use transform="matrix(0.04938271604938272,0,0,0.04938271604938272,49.33333333333334,0)" xlink:href="#aH"/></g><path fill="#333" d="M190-63c-7 42-38 67-86 67-59 0-84-38-90-98-12-110 154-137 174-36l-49 2c-2-19-15-32-35-32-30 0-35 28-38 64-6 74 65 87 74 30" id="aI"/><path fill="#333" d="M147 0L96-86 75-71V0H25v-261h50v150l67-79h53l-66 74L201 0h-54" id="aJ"/><path fill="#333" d="M25-224v-37h50v37H25zM25 0v-190h50V0H25" id="aK"/><path fill="#333" d="M137-138c1-29-70-34-71-4 15 46 118 7 119 86 1 83-164 76-172 9l43-7c4 19 20 25 44 25 33 8 57-30 24-41C81-84 22-81 20-136c-2-80 154-74 161-7" id="aL"/><g id="p"><use transform="matrix(0.04938271604938272,0,0,0.04938271604938272,0,0)" xlink:href="#aI"/><use transform="matrix(0.04938271604938272,0,0,0.04938271604938272,9.876543209876544,0)" xlink:href="#av"/><use transform="matrix(0.04938271604938272,0,0,0.04938271604938272,20.69135802469136,0)" xlink:href="#av"/><use transform="matrix(0.04938271604938272,0,0,0.04938271604938272,31.506172839506174,0)" xlink:href="#aJ"/><use transform="matrix(0.04938271604938272,0,0,0.04938271604938272,41.38271604938272,0)" xlink:href="#aK"/><use transform="matrix(0.04938271604938272,0,0,0.04938271604938272,46.320987654320994,0)" xlink:href="#ax"/><use transform="matrix(0.04938271604938272,0,0,0.04938271604938272,56.19753086419754,0)" xlink:href="#aL"/></g><path fill="#333" d="M240-174c0 40-23 61-54 70L253 0h-59l-57-94H76V0H24v-248c93 4 217-23 216 74zM76-134c48-2 112 12 112-38 0-48-66-32-112-35v73" id="aM"/><path fill="#333" d="M135-194c87-1 58 113 63 194h-50c-7-57 23-157-34-157-59 0-34 97-39 157H25l-1-190h47c2 12-1 28 3 38 12-26 28-41 61-42" id="aN"/><g id="q"><use transform="matrix(0.04938271604938272,0,0,0.04938271604938272,0,0)" xlink:href="#aM"/><use transform="matrix(0.04938271604938272,0,0,0.04938271604938272,12.790123456790125,0)" xlink:href="#ax"/><use transform="matrix(0.04938271604938272,0,0,0.04938271604938272,22.66666666666667,0)" xlink:href="#at"/><use transform="matrix(0.04938271604938272,0,0,0.04938271604938272,28.54320987654322,0)" xlink:href="#as"/><use transform="matrix(0.04938271604938272,0,0,0.04938271604938272,39.35802469135803,0)" xlink:href="#ay"/><use transform="matrix(0.04938271604938272,0,0,0.04938271604938272,46.271604938271615,0)" xlink:href="#aN"/></g><path fill="#333" d="M140-251c80 0 125 45 125 126S219 4 139 4C58 4 15-44 15-125s44-126 125-126zm-1 214c52 0 73-35 73-88 0-50-21-86-72-86-52 0-73 35-73 86s22 88 72 88" id="aO"/><path fill="#333" d="M24 0v-248h52V0H24" id="aP"/><path fill="#333" d="M24-248c120-7 223 5 221 122C244-46 201 0 124 0H24v-248zM76-40c74 7 117-18 117-86 0-67-45-88-117-82v168" id="aQ"/><g id="r"><use transform="matrix(0.04938271604938272,0,0,0.04938271604938272,0,0)" xlink:href="#aO"/><use transform="matrix(0.04938271604938272,0,0,0.04938271604938272,13.827160493827162,0)" xlink:href="#aP"/><use transform="matrix(0.04938271604938272,0,0,0.04938271604938272,18.765432098765434,0)" xlink:href="#aQ"/><use transform="matrix(0.04938271604938272,0,0,0.04938271604938272,31.555555555555557,0)" xlink:href="#ao"/></g><g id="s"><use transform="matrix(0.04938271604938272,0,0,0.04938271604938272,0,0)" xlink:href="#aq"/><use transform="matrix(0.04938271604938272,0,0,0.04938271604938272,4.938271604938272,0)" xlink:href="#av"/><use transform="matrix(0.04938271604938272,0,0,0.04938271604938272,15.753086419753087,0)" xlink:href="#aw"/><use transform="matrix(0.04938271604938272,0,0,0.04938271604938272,26.567901234567902,0)" xlink:href="#av"/><use transform="matrix(0.04938271604938272,0,0,0.04938271604938272,37.382716049382715,0)" xlink:href="#as"/><use transform="matrix(0.04938271604938272,0,0,0.04938271604938272,48.19753086419753,0)" xlink:href="#at"/></g><path fill="#333" d="M135-194c53 0 70 44 70 98 0 56-19 98-73 100-31 1-45-17-59-34 3 33 2 69 2 105H25l-1-265h48c2 10 0 23 3 31 11-24 29-35 60-35zM114-30c33 0 39-31 40-66 0-38-9-64-40-64-56 0-55 130 0 130" id="aR"/><g id="t"><use transform="matrix(0.04938271604938272,0,0,0.04938271604938272,0,0)" xlink:href="#aR"/><use transform="matrix(0.04938271604938272,0,0,0.04938271604938272,10.814814814814815,0)" xlink:href="#ap"/><use transform="matrix(0.04938271604938272,0,0,0.04938271604938272,20.69135802469136,0)" xlink:href="#aw"/><use transform="matrix(0.04938271604938272,0,0,0.04938271604938272,31.506172839506174,0)" xlink:href="#ax"/></g><g id="u"><use transform="matrix(0.04938271604938272,0,0,0.04938271604938272,0,0)" xlink:href="#aq"/><use transform="matrix(0.04938271604938272,0,0,0.04938271604938272,4.938271604938272,0)" xlink:href="#av"/><use transform="matrix(0.04938271604938272,0,0,0.04938271604938272,15.753086419753087,0)" xlink:href="#aw"/><use transform="matrix(0.04938271604938272,0,0,0.04938271604938272,26.567901234567902,0)" xlink:href="#av"/><use transform="matrix(0.04938271604938272,0,0,0.04938271604938272,37.382716049382715,0)" xlink:href="#as"/><use transform="matrix(0.04938271604938272,0,0,0.04938271604938272,48.19753086419753,0)" xlink:href="#at"/></g><g id="v"><use transform="matrix(0.04938271604938272,0,0,0.04938271604938272,0,0)" xlink:href="#aR"/><use transform="matrix(0.04938271604938272,0,0,0.04938271604938272,10.814814814814815,0)" xlink:href="#ap"/><use transform="matrix(0.04938271604938272,0,0,0.04938271604938272,20.69135802469136,0)" xlink:href="#aw"/><use transform="matrix(0.04938271604938272,0,0,0.04938271604938272,31.506172839506174,0)" xlink:href="#ax"/></g><path fill="#333" d="M231 0h-52l-39-155L100 0H48L-1-190h46L77-45c9-52 24-97 36-145h53l37 145 32-145h46" id="aS"/><g id="w"><use transform="matrix(0.04938271604938272,0,0,0.04938271604938272,0,0)" xlink:href="#aS"/><use transform="matrix(0.04938271604938272,0,0,0.04938271604938272,13.827160493827162,0)" xlink:href="#aK"/><use transform="matrix(0.04938271604938272,0,0,0.04938271604938272,18.765432098765434,0)" xlink:href="#at"/><use transform="matrix(0.04938271604938272,0,0,0.04938271604938272,24.641975308641978,0)" xlink:href="#au"/></g><path fill="#635dff" d="M135-194c53 0 70 44 70 98 0 56-19 98-73 100-31 1-45-17-59-34 3 33 2 69 2 105H25l-1-265h48c2 10 0 23 3 31 11-24 29-35 60-35zM114-30c33 0 39-31 40-66 0-38-9-64-40-64-56 0-55 130 0 130" id="aT"/><path fill="#635dff" d="M110-194c64 0 96 36 96 99 0 64-35 99-97 99-61 0-95-36-95-99 0-62 34-99 96-99zm-1 164c35 0 45-28 45-65 0-40-10-65-43-65-34 0-45 26-45 65 0 36 10 65 43 65" id="aU"/><path fill="#635dff" d="M137-138c1-29-70-34-71-4 15 46 118 7 119 86 1 83-164 76-172 9l43-7c4 19 20 25 44 25 33 8 57-30 24-41C81-84 22-81 20-136c-2-80 154-74 161-7" id="aV"/><path fill="#635dff" d="M115-3C79 11 28 4 28-45v-112H4v-33h27l15-45h31v45h36v33H77v99c-1 23 16 31 38 25v30" id="aW"/><path fill="#635dff" d="M-4 44V30h207v14H-4" id="aX"/><path fill="#635dff" d="M25 0v-261h50V0H25" id="aY"/><path fill="#635dff" d="M195-6C206 82 75 100 31 46c-4-6-6-13-8-21l49-6c3 16 16 24 34 25 40 0 42-37 40-79-11 22-30 35-61 35-53 0-70-43-70-97 0-56 18-96 73-97 30 0 46 14 59 34l2-30h47zm-90-29c32 0 41-27 41-63 0-35-9-62-40-62-32 0-39 29-40 63 0 36 9 62 39 62" id="aZ"/><path fill="#635dff" d="M85 4C-2 5 27-109 22-190h50c7 57-23 150 33 157 60-5 35-97 40-157h50l1 190h-47c-2-12 1-28-3-38-12 25-28 42-61 42" id="ba"/><path fill="#635dff" d="M135-150c-39-12-60 13-60 57V0H25l-1-190h47c2 13-1 29 3 40 6-28 27-53 61-41v41" id="bb"/><path fill="#635dff" d="M185-48c-13 30-37 53-82 52C43 2 14-33 14-96s30-98 90-98c62 0 83 45 84 108H66c0 31 8 55 39 56 18 0 30-7 34-22zm-45-69c5-46-57-63-70-21-2 6-4 13-4 21h74" id="bc"/><path fill="#635dff" d="M88-194c31-1 46 15 58 34l-1-101h50l1 261h-48c-2-10 0-23-3-31C134-8 116 4 84 4 32 4 16-41 15-95c0-56 19-97 73-99zm17 164c33 0 40-30 41-66 1-37-9-64-41-64s-38 30-39 65c0 43 13 65 39 65" id="bd"/><path fill="#635dff" d="M25-224v-37h50v37H25zM25 0v-190h50V0H25" id="be"/><path fill="#635dff" d="M190-63c-7 42-38 67-86 67-59 0-84-38-90-98-12-110 154-137 174-36l-49 2c-2-19-15-32-35-32-30 0-35 28-38 64-6 74 65 87 74 30" id="bf"/><g id="x"><use transform="matrix(0.04938271604938272,0,0,0.04938271604938272,0,0)" xlink:href="#aT"/><use transform="matrix(0.04938271604938272,0,0,0.04938271604938272,10.814814814814815,0)" xlink:href="#aU"/><use transform="matrix(0.04938271604938272,0,0,0.04938271604938272,21.62962962962963,0)" xlink:href="#aV"/><use transform="matrix(0.04938271604938272,0,0,0.04938271604938272,31.506172839506174,0)" xlink:href="#aW"/><use transform="matrix(0.04938271604938272,0,0,0.04938271604938272,37.382716049382715,0)" xlink:href="#aX"/><use transform="matrix(0.04938271604938272,0,0,0.04938271604938272,47.25925925925926,0)" xlink:href="#aY"/><use transform="matrix(0.04938271604938272,0,0,0.04938271604938272,52.19753086419754,0)" xlink:href="#aU"/><use transform="matrix(0.04938271604938272,0,0,0.04938271604938272,63.01234567901235,0)" xlink:href="#aZ"/><use transform="matrix(0.04938271604938272,0,0,0.04938271604938272,73.82716049382717,0)" xlink:href="#aU"/><use transform="matrix(0.04938271604938272,0,0,0.04938271604938272,84.64197530864197,0)" xlink:href="#ba"/><use transform="matrix(0.04938271604938272,0,0,0.04938271604938272,95.45679012345678,0)" xlink:href="#aW"/><use transform="matrix(0.04938271604938272,0,0,0.04938271604938272,101.33333333333331,0)" xlink:href="#aX"/><use transform="matrix(0.04938271604938272,0,0,0.04938271604938272,111.20987654320986,0)" xlink:href="#bb"/><use transform="matrix(0.04938271604938272,0,0,0.04938271604938272,118.12345679012344,0)" xlink:href="#bc"/><use transform="matrix(0.04938271604938272,0,0,0.04938271604938272,128,0)" xlink:href="#bd"/><use transform="matrix(0.04938271604938272,0,0,0.04938271604938272,138.8148148148148,0)" xlink:href="#be"/><use transform="matrix(0.04938271604938272,0,0,0.04938271604938272,143.7530864197531,0)" xlink:href="#bb"/><use transform="matrix(0.04938271604938272,0,0,0.04938271604938272,150.66666666666666,0)" xlink:href="#bc"/><use transform="matrix(0.04938271604938272,0,0,0.04938271604938272,160.5432098765432,0)" xlink:href="#bf"/><use transform="matrix(0.04938271604938272,0,0,0.04938271604938272,170.41975308641975,0)" xlink:href="#aW"/><use transform="matrix(0.04938271604938272,0,0,0.04938271604938272,176.29629629629628,0)" xlink:href="#aX"/><use transform="matrix(0.04938271604938272,0,0,0.04938271604938272,186.1728395061728,0)" xlink:href="#ba"/><use transform="matrix(0.04938271604938272,0,0,0.04938271604938272,196.98765432098762,0)" xlink:href="#bb"/><use transform="matrix(0.04938271604938272,0,0,0.04938271604938272,203.90123456790116,0)" xlink:href="#be"/></g><path fill="#3a414a" d="M67-125c0 53 21 87 73 88 37 1 54-22 65-47l45 17C233-25 199 4 140 4 58 4 20-42 15-125 8-235 124-281 211-232c18 10 29 29 36 50l-46 12c-8-25-30-41-62-41-52 0-71 34-72 86" id="bg"/><path fill="#3a414a" d="M25-224v-37h50v37H25zM25 0v-190h50V0H25" id="bh"/><path fill="#3a414a" d="M190-63c-7 42-38 67-86 67-59 0-84-38-90-98-12-110 154-137 174-36l-49 2c-2-19-15-32-35-32-30 0-35 28-38 64-6 74 65 87 74 30" id="bi"/><g id="y"><use transform="matrix(0.04938271604938272,0,0,0.04938271604938272,0,0)" xlink:href="#bg"/><use transform="matrix(0.04938271604938272,0,0,0.04938271604938272,12.790123456790125,0)" xlink:href="#ak"/><use transform="matrix(0.04938271604938272,0,0,0.04938271604938272,17.7283950617284,0)" xlink:href="#bh"/><use transform="matrix(0.04938271604938272,0,0,0.04938271604938272,22.66666666666667,0)" xlink:href="#bi"/><use transform="matrix(0.04938271604938272,0,0,0.04938271604938272,32.543209876543216,0)" xlink:href="#ag"/></g><path fill="#3a414a" d="M135-194c87-1 58 113 63 194h-50c-7-57 23-157-34-157-59 0-34 97-39 157H25l-1-190h47c2 12-1 28 3 38 12-26 28-41 61-42" id="bj"/><g id="z"><use transform="matrix(0.04938271604938272,0,0,0.04938271604938272,0,0)" xlink:href="#ai"/><use transform="matrix(0.04938271604938272,0,0,0.04938271604938272,10.814814814814815,0)" xlink:href="#bj"/></g><path fill="#333" d="M121-226c-27-7-43 5-38 36h38v33H83V0H34v-157H6v-33h28c-9-59 32-81 87-68v32" id="bk"/><g id="A"><use transform="matrix(0.04938271604938272,0,0,0.04938271604938272,0,0)" xlink:href="#bk"/><use transform="matrix(0.04938271604938272,0,0,0.04938271604938272,5.8765432098765435,0)" xlink:href="#av"/><use transform="matrix(0.04938271604938272,0,0,0.04938271604938272,16.691358024691358,0)" xlink:href="#ay"/></g><g id="B"><use transform="matrix(0.04938271604938272,0,0,0.04938271604938272,0,0)" xlink:href="#aq"/><use transform="matrix(0.04938271604938272,0,0,0.04938271604938272,4.938271604938272,0)" xlink:href="#av"/><use transform="matrix(0.04938271604938272,0,0,0.04938271604938272,15.753086419753087,0)" xlink:href="#aw"/><use transform="matrix(0.04938271604938272,0,0,0.04938271604938272,26.567901234567902,0)" xlink:href="#av"/><use transform="matrix(0.04938271604938272,0,0,0.04938271604938272,37.382716049382715,0)" xlink:href="#as"/><use transform="matrix(0.04938271604938272,0,0,0.04938271604938272,48.19753086419753,0)" xlink:href="#at"/></g><g id="C"><use transform="matrix(0.04938271604938272,0,0,0.04938271604938272,0,0)" xlink:href="#ao"/><use transform="matrix(0.04938271604938272,0,0,0.04938271604938272,12.790123456790125,0)" xlink:href="#aq"/><use transform="matrix(0.04938271604938272,0,0,0.04938271604938272,17.7283950617284,0)" xlink:href="#ax"/><use transform="matrix(0.04938271604938272,0,0,0.04938271604938272,27.604938271604947,0)" xlink:href="#ap"/><use transform="matrix(0.04938271604938272,0,0,0.04938271604938272,37.48148148148149,0)" xlink:href="#ay"/></g><g id="D"><use transform="matrix(0.04938271604938272,0,0,0.04938271604938272,0,0)" xlink:href="#aL"/><use transform="matrix(0.04938271604938272,0,0,0.04938271604938272,9.876543209876544,0)" xlink:href="#ax"/><use transform="matrix(0.04938271604938272,0,0,0.04938271604938272,19.75308641975309,0)" xlink:href="#aL"/><use transform="matrix(0.04938271604938272,0,0,0.04938271604938272,29.629629629629633,0)" xlink:href="#aL"/><use transform="matrix(0.04938271604938272,0,0,0.04938271604938272,39.50617283950618,0)" xlink:href="#aK"/><use transform="matrix(0.04938271604938272,0,0,0.04938271604938272,44.44444444444445,0)" xlink:href="#av"/><use transform="matrix(0.04938271604938272,0,0,0.04938271604938272,55.25925925925927,0)" xlink:href="#aN"/></g><g id="E"><use transform="matrix(0.04938271604938272,0,0,0.04938271604938272,0,0)" xlink:href="#aI"/><use transform="matrix(0.04938271604938272,0,0,0.04938271604938272,9.876543209876544,0)" xlink:href="#av"/><use transform="matrix(0.04938271604938272,0,0,0.04938271604938272,20.69135802469136,0)" xlink:href="#av"/><use transform="matrix(0.04938271604938272,0,0,0.04938271604938272,31.506172839506174,0)" xlink:href="#aJ"/><use transform="matrix(0.04938271604938272,0,0,0.04938271604938272,41.38271604938272,0)" xlink:href="#aK"/><use transform="matrix(0.04938271604938272,0,0,0.04938271604938272,46.320987654320994,0)" xlink:href="#ax"/><use transform="matrix(0.04938271604938272,0,0,0.04938271604938272,56.19753086419754,0)" xlink:href="#aL"/></g><path fill="#333" d="M88-194c31-1 46 15 58 34l-1-101h50l1 261h-48c-2-10 0-23-3-31C134-8 116 4 84 4 32 4 16-41 15-95c0-56 19-97 73-99zm17 164c33 0 40-30 41-66 1-37-9-64-41-64s-38 30-39 65c0 43 13 65 39 65" id="bl"/><g id="F"><use transform="matrix(0.04938271604938272,0,0,0.04938271604938272,0,0)" xlink:href="#aM"/><use transform="matrix(0.04938271604938272,0,0,0.04938271604938272,12.790123456790125,0)" xlink:href="#ax"/><use transform="matrix(0.04938271604938272,0,0,0.04938271604938272,22.66666666666667,0)" xlink:href="#bl"/><use transform="matrix(0.04938271604938272,0,0,0.04938271604938272,33.48148148148149,0)" xlink:href="#aK"/><use transform="matrix(0.04938271604938272,0,0,0.04938271604938272,38.41975308641976,0)" xlink:href="#ay"/><use transform="matrix(0.04938271604938272,0,0,0.04938271604938272,45.33333333333334,0)" xlink:href="#ax"/><use transform="matrix(0.04938271604938272,0,0,0.04938271604938272,55.209876543209894,0)" xlink:href="#aI"/><use transform="matrix(0.04938271604938272,0,0,0.04938271604938272,65.08641975308643,0)" xlink:href="#at"/></g><g id="G"><use transform="matrix(0.04938271604938272,0,0,0.04938271604938272,0,0)" xlink:href="#at"/><use transform="matrix(0.04938271604938272,0,0,0.04938271604938272,5.8765432098765435,0)" xlink:href="#av"/></g></defs></g></svg>